<svg xmlns="http://www.w3.org/2000/svg" xmlns:xlink="http://www.w3.org/1999/xlink" contentStyleType="text/css" data-diagram-type="SEQUENCE" height="676px" preserveAspectRatio="none" style="width:981px;height:676px;background:#FFFFFF;" version="1.1" viewBox="0 0 981 676" width="981px" zoomAndPan="magnify"><defs/><g><g><title>WIFI</title><rect fill="#000000" fill-opacity="0.00000" height="601.9766" width="8" x="22.7725" y="37.6094"/><line style="stroke:#181818;stroke-width:0.5;stroke-dasharray:5,5;" x1="26" x2="26" y1="37.6094" y2="639.5859"/></g><g><title>Fetch_Task</title><rect fill="#000000" fill-opacity="0.00000" height="601.9766" width="8" x="267.2876" y="37.6094"/><line style="stroke:#181818;stroke-width:0.5;stroke-dasharray:5,5;" x1="270.7188" x2="270.7188" y1="37.6094" y2="639.5859"/></g><g><title>Printer_base</title><rect fill="#000000" fill-opacity="0.00000" height="601.9766" width="8" x="440.2393" y="37.6094"/><line style="stroke:#181818;stroke-width:0.5;stroke-dasharray:5,5;" x1="443.5498" x2="443.5498" y1="37.6094" y2="639.5859"/></g><g><title>Printers</title><rect fill="#000000" fill-opacity="0.00000" height="601.9766" width="8" x="647.0264" y="37.6094"/><line style="stroke:#181818;stroke-width:0.5;stroke-dasharray:5,5;" x1="650.9092" x2="650.9092" y1="37.6094" y2="639.5859"/></g><g><title>Display</title><rect fill="#000000" fill-opacity="0.00000" height="601.9766" width="8" x="838.0688" y="37.6094"/><line style="stroke:#181818;stroke-width:0.5;stroke-dasharray:5,5;" x1="841.1172" x2="841.1172" y1="37.6094" y2="639.5859"/></g><g><title>NET</title><rect fill="#000000" fill-opacity="0.00000" height="601.9766" width="8" x="899.0205" y="37.6094"/><line style="stroke:#181818;stroke-width:0.5;stroke-dasharray:5,5;" x1="903.0205" x2="903.0205" y1="37.6094" y2="639.5859"/></g><g><title>Utils</title><rect fill="#000000" fill-opacity="0.00000" height="601.9766" width="8" x="950.6309" y="37.6094"/><line style="stroke:#181818;stroke-width:0.5;stroke-dasharray:5,5;" x1="954.0205" x2="954.0205" y1="37.6094" y2="639.5859"/></g><g class="participant participant-head" data-participant="WIFI"><rect fill="#E2E2F0" height="31.6094" rx="2.5" ry="2.5" style="stroke:#181818;stroke-width:0.5;" width="43.5449" x="5" y="5"/><text fill="#000000" font-family="sans-serif" font-size="14" lengthAdjust="spacing" textLength="29.5449" x="12" y="26.5332">WIFI</text></g><g class="participant participant-tail" data-participant="WIFI"><rect fill="#E2E2F0" height="31.6094" rx="2.5" ry="2.5" style="stroke:#181818;stroke-width:0.5;" width="43.5449" x="5" y="638.5859"/><text fill="#000000" font-family="sans-serif" font-size="14" lengthAdjust="spacing" textLength="29.5449" x="12" y="660.1191">WIFI</text></g><g class="participant participant-head" data-participant="Fetch_Task"><rect fill="#E2E2F0" height="31.6094" rx="2.5" ry="2.5" style="stroke:#181818;stroke-width:0.5;" width="87.1377" x="227.7188" y="5"/><text fill="#000000" font-family="sans-serif" font-size="14" lengthAdjust="spacing" textLength="73.1377" x="234.7188" y="26.5332">Fetch_Task</text></g><g class="participant participant-tail" data-participant="Fetch_Task"><rect fill="#E2E2F0" height="31.6094" rx="2.5" ry="2.5" style="stroke:#181818;stroke-width:0.5;" width="87.1377" x="227.7188" y="638.5859"/><text fill="#000000" font-family="sans-serif" font-size="14" lengthAdjust="spacing" textLength="73.1377" x="234.7188" y="660.1191">Fetch_Task</text></g><g class="participant participant-head" data-participant="Printer_base"><rect fill="#E2E2F0" height="31.6094" rx="2.5" ry="2.5" style="stroke:#181818;stroke-width:0.5;" width="93.3789" x="397.5498" y="5"/><text fill="#000000" font-family="sans-serif" font-size="14" lengthAdjust="spacing" textLength="79.3789" x="404.5498" y="26.5332">Printer_base</text></g><g class="participant participant-tail" data-participant="Printer_base"><rect fill="#E2E2F0" height="31.6094" rx="2.5" ry="2.5" style="stroke:#181818;stroke-width:0.5;" width="93.3789" x="397.5498" y="638.5859"/><text fill="#000000" font-family="sans-serif" font-size="14" lengthAdjust="spacing" textLength="79.3789" x="404.5498" y="660.1191">Printer_base</text></g><g class="participant participant-head" data-participant="Printers"><rect fill="#E2E2F0" height="31.6094" rx="2.5" ry="2.5" style="stroke:#181818;stroke-width:0.5;" width="62.2344" x="619.9092" y="5"/><text fill="#000000" font-family="sans-serif" font-size="14" lengthAdjust="spacing" textLength="48.2344" x="626.9092" y="26.5332">Printers</text></g><g class="participant participant-tail" data-participant="Printers"><rect fill="#E2E2F0" height="31.6094" rx="2.5" ry="2.5" style="stroke:#181818;stroke-width:0.5;" width="62.2344" x="619.9092" y="638.5859"/><text fill="#000000" font-family="sans-serif" font-size="14" lengthAdjust="spacing" textLength="48.2344" x="626.9092" y="660.1191">Printers</text></g><g class="participant participant-head" data-participant="Display"><rect fill="#E2E2F0" height="31.6094" rx="2.5" ry="2.5" style="stroke:#181818;stroke-width:0.5;" width="59.9033" x="812.1172" y="5"/><text fill="#000000" font-family="sans-serif" font-size="14" lengthAdjust="spacing" textLength="45.9033" x="819.1172" y="26.5332">Display</text></g><g class="participant participant-tail" data-participant="Display"><rect fill="#E2E2F0" height="31.6094" rx="2.5" ry="2.5" style="stroke:#181818;stroke-width:0.5;" width="59.9033" x="812.1172" y="638.5859"/><text fill="#000000" font-family="sans-serif" font-size="14" lengthAdjust="spacing" textLength="45.9033" x="819.1172" y="660.1191">Display</text></g><g class="participant participant-head" data-participant="NET"><rect fill="#E2E2F0" height="31.6094" rx="2.5" ry="2.5" style="stroke:#181818;stroke-width:0.5;" width="42" x="882.0205" y="5"/><text fill="#000000" font-family="sans-serif" font-size="14" lengthAdjust="spacing" textLength="28" x="889.0205" y="26.5332">NET</text></g><g class="participant participant-tail" data-participant="NET"><rect fill="#E2E2F0" height="31.6094" rx="2.5" ry="2.5" style="stroke:#181818;stroke-width:0.5;" width="42" x="882.0205" y="638.5859"/><text fill="#000000" font-family="sans-serif" font-size="14" lengthAdjust="spacing" textLength="28" x="889.0205" y="660.1191">NET</text></g><g class="participant participant-head" data-participant="Utils"><rect fill="#E2E2F0" height="31.6094" rx="2.5" ry="2.5" style="stroke:#181818;stroke-width:0.5;" width="41.2207" x="934.0205" y="5"/><text fill="#000000" font-family="sans-serif" font-size="14" lengthAdjust="spacing" textLength="27.2207" x="941.0205" y="26.5332">Utils</text></g><g class="participant participant-tail" data-participant="Utils"><rect fill="#E2E2F0" height="31.6094" rx="2.5" ry="2.5" style="stroke:#181818;stroke-width:0.5;" width="41.2207" x="934.0205" y="638.5859"/><text fill="#000000" font-family="sans-serif" font-size="14" lengthAdjust="spacing" textLength="27.2207" x="941.0205" y="660.1191">Utils</text></g><g class="message" data-participant-1="WIFI" data-participant-2="WIFI"><line style="stroke:#181818;stroke-width:1;" x1="26.7725" x2="68.7725" y1="69.9609" y2="69.9609"/><line style="stroke:#181818;stroke-width:1;" x1="68.7725" x2="68.7725" y1="69.9609" y2="82.9609"/><line style="stroke:#181818;stroke-width:1;" x1="27.7725" x2="68.7725" y1="82.9609" y2="82.9609"/><polygon fill="#181818" points="37.7725,78.9609,27.7725,82.9609,37.7725,86.9609,33.7725,82.9609" style="stroke:#181818;stroke-width:1;"/><text fill="#000000" font-family="sans-serif" font-size="13" lengthAdjust="spacing" textLength="153.1943" x="33.7725" y="65.1045">Give sem when connected</text></g><g class="message" data-participant-1="Fetch_Task" data-participant-2="Printer_base"><polygon fill="#181818" points="432.2393,109.3125,442.2393,113.3125,432.2393,117.3125,436.2393,113.3125" style="stroke:#181818;stroke-width:1;"/><line style="stroke:#181818;stroke-width:1;" x1="271.2876" x2="438.2393" y1="113.3125" y2="113.3125"/><text fill="#000000" font-family="sans-serif" font-size="13" lengthAdjust="spacing" textLength="109.1353" x="278.2876" y="108.4561">printer data update</text></g><g class="message" data-participant-1="Printer_base" data-participant-2="Printers"><polygon fill="#181818" points="639.0264,139.6641,649.0264,143.6641,639.0264,147.6641,643.0264,143.6641" style="stroke:#181818;stroke-width:1;"/><line style="stroke:#181818;stroke-width:1;" x1="444.2393" x2="645.0264" y1="143.6641" y2="143.6641"/><text fill="#000000" font-family="sans-serif" font-size="13" lengthAdjust="spacing" textLength="49.8672" x="451.2393" y="138.8076">get state</text></g><g class="message" data-participant-1="Printers" data-participant-2="Printer_base"><polygon fill="#181818" points="455.2393,170.0156,445.2393,174.0156,455.2393,178.0156,451.2393,174.0156" style="stroke:#181818;stroke-width:1;"/><line style="stroke:#181818;stroke-width:1;stroke-dasharray:2,2;" x1="449.2393" x2="650.0264" y1="174.0156" y2="174.0156"/><text fill="#000000" font-family="sans-serif" font-size="13" lengthAdjust="spacing" textLength="65.7554" x="461.2393" y="169.1592">return state</text></g><g class="message" data-participant-1="Printer_base" data-participant-2="Printers"><polygon fill="#181818" points="639.0264,200.3672,649.0264,204.3672,639.0264,208.3672,643.0264,204.3672" style="stroke:#181818;stroke-width:1;"/><line style="stroke:#181818;stroke-width:1;" x1="444.2393" x2="645.0264" y1="204.3672" y2="204.3672"/><text fill="#000000" font-family="sans-serif" font-size="13" lengthAdjust="spacing" textLength="182.7871" x="451.2393" y="199.5107">if OFFLINE, printer connect text</text></g><g class="message" data-participant-1="Printers" data-participant-2="Printer_base"><polygon fill="#181818" points="455.2393,230.7188,445.2393,234.7188,455.2393,238.7188,451.2393,234.7188" style="stroke:#181818;stroke-width:1;"/><line style="stroke:#181818;stroke-width:1;stroke-dasharray:2,2;" x1="449.2393" x2="650.0264" y1="234.7188" y2="234.7188"/><text fill="#000000" font-family="sans-serif" font-size="13" lengthAdjust="spacing" textLength="77.3145" x="461.2393" y="229.8623">Return status</text></g><g class="message" data-participant-1="Printer_base" data-participant-2="Display"><polygon fill="#181818" points="830.0688,261.0703,840.0688,265.0703,830.0688,269.0703,834.0688,265.0703" style="stroke:#181818;stroke-width:1;"/><line style="stroke:#181818;stroke-width:1;" x1="444.2393" x2="836.0688" y1="265.0703" y2="265.0703"/><text fill="#000000" font-family="sans-serif" font-size="13" lengthAdjust="spacing" textLength="178.458" x="451.2393" y="260.2139">if failed render wifi error screen</text></g><g class="message" data-participant-1="Printer_base" data-participant-2="Printers"><polygon fill="#181818" points="639.0264,291.4219,649.0264,295.4219,639.0264,299.4219,643.0264,295.4219" style="stroke:#181818;stroke-width:1;"/><line style="stroke:#181818;stroke-width:1;" x1="444.2393" x2="645.0264" y1="295.4219" y2="295.4219"/><text fill="#000000" font-family="sans-serif" font-size="13" lengthAdjust="spacing" textLength="151.7407" x="451.2393" y="290.5654">if sucess fetch printer data</text></g><g class="message" data-participant-1="Printers" data-participant-2="NET"><polygon fill="#181818" points="891.0205,321.7734,901.0205,325.7734,891.0205,329.7734,895.0205,325.7734" style="stroke:#181818;stroke-width:1;"/><line style="stroke:#181818;stroke-width:1;" x1="651.0264" x2="897.0205" y1="325.7734" y2="325.7734"/><text fill="#000000" font-family="sans-serif" font-size="13" lengthAdjust="spacing" textLength="133.6499" x="658.0264" y="320.917">HTTP GET printer data</text></g><g class="message" data-participant-1="NET" data-participant-2="Printers"><polygon fill="#181818" points="662.0264,352.125,652.0264,356.125,662.0264,360.125,658.0264,356.125" style="stroke:#181818;stroke-width:1;"/><line style="stroke:#181818;stroke-width:1;stroke-dasharray:2,2;" x1="656.0264" x2="902.0205" y1="356.125" y2="356.125"/><text fill="#000000" font-family="sans-serif" font-size="13" lengthAdjust="spacing" textLength="85.2554" x="668.0264" y="351.2686">JSON rsp data</text></g><g class="message" data-participant-1="Printers" data-participant-2="Utils"><polygon fill="#181818" points="942.6309,382.4766,952.6309,386.4766,942.6309,390.4766,946.6309,386.4766" style="stroke:#181818;stroke-width:1;"/><line style="stroke:#181818;stroke-width:1;" x1="651.0264" x2="948.6309" y1="386.4766" y2="386.4766"/><text fill="#000000" font-family="sans-serif" font-size="13" lengthAdjust="spacing" textLength="101.1563" x="658.0264" y="381.6201">Prase JSON data</text></g><g class="message" data-participant-1="Utils" data-participant-2="Printers"><polygon fill="#181818" points="662.0264,412.8281,652.0264,416.8281,662.0264,420.8281,658.0264,416.8281" style="stroke:#181818;stroke-width:1;"/><line style="stroke:#181818;stroke-width:1;stroke-dasharray:2,2;" x1="656.0264" x2="953.6309" y1="416.8281" y2="416.8281"/><text fill="#000000" font-family="sans-serif" font-size="13" lengthAdjust="spacing" textLength="70.1035" x="668.0264" y="411.9717">Parsed data</text></g><g class="message" data-participant-1="Printers" data-participant-2="Printers"><line style="stroke:#181818;stroke-width:1;" x1="651.0264" x2="693.0264" y1="447.1797" y2="447.1797"/><line style="stroke:#181818;stroke-width:1;" x1="693.0264" x2="693.0264" y1="447.1797" y2="460.1797"/><line style="stroke:#181818;stroke-width:1;" x1="652.0264" x2="693.0264" y1="460.1797" y2="460.1797"/><polygon fill="#181818" points="662.0264,456.1797,652.0264,460.1797,662.0264,464.1797,658.0264,460.1797" style="stroke:#181818;stroke-width:1;"/><text fill="#000000" font-family="sans-serif" font-size="13" lengthAdjust="spacing" textLength="177.0425" x="658.0264" y="442.3232">Save data to printer_info struct</text></g><g class="message" data-participant-1="Printers" data-participant-2="Printer_base"><polygon fill="#181818" points="455.2393,470.1797,445.2393,474.1797,455.2393,478.1797,451.2393,474.1797" style="stroke:#181818;stroke-width:1;"/><line style="stroke:#181818;stroke-width:1;stroke-dasharray:2,2;" x1="449.2393" x2="650.0264" y1="474.1797" y2="474.1797"/></g><g class="message" data-participant-1="Printer_base" data-participant-2="Display"><polygon fill="#181818" points="830.0688,500.5313,840.0688,504.5313,830.0688,508.5313,834.0688,504.5313" style="stroke:#181818;stroke-width:1;"/><line style="stroke:#181818;stroke-width:1;" x1="444.2393" x2="836.0688" y1="504.5313" y2="504.5313"/><text fill="#000000" font-family="sans-serif" font-size="13" lengthAdjust="spacing" textLength="130.0762" x="451.2393" y="499.6748">Render Extracted data</text></g><g class="message" data-participant-1="WIFI" data-participant-2="WIFI"><line style="stroke:#181818;stroke-width:1;" x1="26.7725" x2="68.7725" y1="534.8828" y2="534.8828"/><line style="stroke:#181818;stroke-width:1;" x1="68.7725" x2="68.7725" y1="534.8828" y2="547.8828"/><line style="stroke:#181818;stroke-width:1;" x1="27.7725" x2="68.7725" y1="547.8828" y2="547.8828"/><polygon fill="#181818" points="37.7725,543.8828,27.7725,547.8828,37.7725,551.8828,33.7725,547.8828" style="stroke:#181818;stroke-width:1;"/><text fill="#000000" font-family="sans-serif" font-size="13" lengthAdjust="spacing" textLength="230.5151" x="33.7725" y="530.0264">Disconnected, sets wifi_connected:false</text></g><g class="message" data-participant-1="Fetch_Task" data-participant-2="Display"><polygon fill="#181818" points="830.0688,574.2344,840.0688,578.2344,830.0688,582.2344,834.0688,578.2344" style="stroke:#181818;stroke-width:1;"/><line style="stroke:#181818;stroke-width:1;" x1="271.2876" x2="836.0688" y1="578.2344" y2="578.2344"/><text fill="#000000" font-family="sans-serif" font-size="13" lengthAdjust="spacing" textLength="195.0889" x="278.2876" y="573.3779">Render Wifi Disconnected Screen</text></g><g class="message" data-participant-1="Fetch_Task" data-participant-2="Fetch_Task"><line style="stroke:#181818;stroke-width:1;" x1="271.2876" x2="313.2876" y1="608.5859" y2="608.5859"/><line style="stroke:#181818;stroke-width:1;" x1="313.2876" x2="313.2876" y1="608.5859" y2="621.5859"/><line style="stroke:#181818;stroke-width:1;" x1="272.2876" x2="313.2876" y1="621.5859" y2="621.5859"/><polygon fill="#181818" points="282.2876,617.5859,272.2876,621.5859,282.2876,625.5859,278.2876,621.5859" style="stroke:#181818;stroke-width:1;"/><text fill="#000000" font-family="sans-serif" font-size="13" lengthAdjust="spacing" textLength="158.9517" x="278.2876" y="603.7295">Waits for the wifi to connect</text></g><!--SRC=[VL91Ri8m4BppYdr0-K0Ed9fGgWeYI9LZv2RhOZLrejrDeR_l9g4GGyl9iZsU6SzElafMC5z0hci4I_U5mFW9XprwA1lliHIiPWbAkIyomnyzDYNd1QbuCumHjECEAYC6kbONd4qHanSSmJiAi4mm3FCRIaBfo8UuFxYSXKsIlApMySFPnSap21xbdiJs8j4nt8WyEcvhypreMEDghDIKhrJWuAm396e8k2H4VzyWToKoW-q33AAQc5l0EiuYUCgo59Pn5iBqQcfVMPztcpKGj-DzmFCghbP4IhsL0JTWXkChbjGGwwzkh5mGEwDb6AOgpQ-dmddRQ6hKbNVY_J_ExHXYV1GoVRDEVyY35YhwNBq7hQFma7fnFeoigLKbREMrHjuFQae5kt5UuRFBBeBSEDMoEbhPupXf_Vg9OFO3]--></g></svg>