<svg xmlns="http://www.w3.org/2000/svg" xmlns:xlink="http://www.w3.org/1999/xlink" contentStyleType="text/css" data-diagram-type="SEQUENCE" height="2245px" preserveAspectRatio="none" style="width:1051px;height:2245px;background:#FFFFFF;" version="1.1" viewBox="0 0 1051 2245" width="1051px" zoomAndPan="magnify"><defs/><g><rect fill="none" height="158.7578" style="stroke:#000000;stroke-width:1.5;" width="665.6577" x="261" y="54.6094"/><rect fill="none" height="255.5156" style="stroke:#000000;stroke-width:1.5;" width="582.6577" x="344" y="227.3672"/><rect fill="none" height="122.4063" style="stroke:#000000;stroke-width:1.5;" width="465.6577" x="461" y="496.8828"/><rect fill="none" height="374.9219" style="stroke:#000000;stroke-width:1.5;" width="745.6587" x="269" y="633.2891"/><rect fill="none" height="656.1953" style="stroke:#000000;stroke-width:1.5;" width="1036.7051" x="9" y="1022.2109"/><rect fill="none" height="499.7344" style="stroke:#000000;stroke-width:1.5;" width="924.7261" x="19" y="1692.4063"/><g><title>Display</title><rect fill="#000000" fill-opacity="0.00000" height="2171.5313" width="8" x="496.9517" y="37.6094"/><line style="stroke:#181818;stroke-width:0.5;stroke-dasharray:5,5;" x1="500" x2="500" y1="37.6094" y2="2209.1406"/></g><g><title>DWIN</title><rect fill="#000000" fill-opacity="0.00000" height="2171.5313" width="8" x="731.9795" y="37.6094"/><line style="stroke:#181818;stroke-width:0.5;stroke-dasharray:5,5;" x1="735.3174" x2="735.3174" y1="37.6094" y2="2209.1406"/></g><g><title>ESP32_UART</title><rect fill="#000000" fill-opacity="0.00000" height="2171.5313" width="8" x="860.9165" y="37.6094"/><line style="stroke:#181818;stroke-width:0.5;stroke-dasharray:5,5;" x1="864.1753" x2="864.1753" y1="37.6094" y2="2209.1406"/></g><g class="participant participant-head" data-participant="Display"><rect fill="#E2E2F0" height="31.6094" rx="2.5" ry="2.5" style="stroke:#181818;stroke-width:0.5;" width="59.9033" x="471" y="5"/><text fill="#000000" font-family="sans-serif" font-size="14" lengthAdjust="spacing" textLength="45.9033" x="478" y="26.5332">Display</text></g><g class="participant participant-tail" data-participant="Display"><rect fill="#E2E2F0" height="31.6094" rx="2.5" ry="2.5" style="stroke:#181818;stroke-width:0.5;" width="59.9033" x="471" y="2208.1406"/><text fill="#000000" font-family="sans-serif" font-size="14" lengthAdjust="spacing" textLength="45.9033" x="478" y="2229.6738">Display</text></g><g class="participant participant-head" data-participant="DWIN"><rect fill="#E2E2F0" height="31.6094" rx="2.5" ry="2.5" style="stroke:#181818;stroke-width:0.5;" width="51.3242" x="710.3174" y="5"/><text fill="#000000" font-family="sans-serif" font-size="14" lengthAdjust="spacing" textLength="37.3242" x="717.3174" y="26.5332">DWIN</text></g><g class="participant participant-tail" data-participant="DWIN"><rect fill="#E2E2F0" height="31.6094" rx="2.5" ry="2.5" style="stroke:#181818;stroke-width:0.5;" width="51.3242" x="710.3174" y="2208.1406"/><text fill="#000000" font-family="sans-serif" font-size="14" lengthAdjust="spacing" textLength="37.3242" x="717.3174" y="2229.6738">DWIN</text></g><g class="participant participant-head" data-participant="ESP32_UART"><rect fill="#E2E2F0" height="31.6094" rx="2.5" ry="2.5" style="stroke:#181818;stroke-width:0.5;" width="103.4824" x="813.1753" y="5"/><text fill="#000000" font-family="sans-serif" font-size="14" lengthAdjust="spacing" textLength="89.4824" x="820.1753" y="26.5332">ESP32_UART</text></g><g class="participant participant-tail" data-participant="ESP32_UART"><rect fill="#E2E2F0" height="31.6094" rx="2.5" ry="2.5" style="stroke:#181818;stroke-width:0.5;" width="103.4824" x="813.1753" y="2208.1406"/><text fill="#000000" font-family="sans-serif" font-size="14" lengthAdjust="spacing" textLength="89.4824" x="820.1753" y="2229.6738">ESP32_UART</text></g><path d="M261,54.6094 L553.0698,54.6094 L553.0698,62.9609 L543.0698,72.9609 L261,72.9609 L261,54.6094" fill="#EEEEEE" style="stroke:#000000;stroke-width:1.5;"/><rect fill="none" height="158.7578" style="stroke:#000000;stroke-width:1.5;" width="665.6577" x="261" y="54.6094"/><text fill="#000000" font-family="sans-serif" font-size="13" font-weight="bold" lengthAdjust="spacing" textLength="247.0698" x="276" y="69.1045">void screen_set_display_rot(uint8_t rot)</text><g class="message" data-participant-1="Display" data-participant-2="DWIN"><polygon fill="#181818" points="723.9795,94.3125,733.9795,98.3125,723.9795,102.3125,727.9795,98.3125" style="stroke:#181818;stroke-width:1;"/><line style="stroke:#181818;stroke-width:1;" x1="500.9517" x2="729.9795" y1="98.3125" y2="98.3125"/><text fill="#000000" font-family="sans-serif" font-size="13" lengthAdjust="spacing" textLength="151.0298" x="507.9517" y="93.4561">add_byte () for each bytes</text></g><path d="M271,77.9609 L271,103.9609 L495,103.9609 L495,87.9609 L485,77.9609 L271,77.9609" fill="#FEFFDD" style="stroke:#181818;stroke-width:0.5;"/><path d="M485,77.9609 L485,87.9609 L495,87.9609 L485,77.9609" fill="#FEFFDD" style="stroke:#181818;stroke-width:0.5;"/><text fill="#000000" font-family="sans-serif" font-size="13" lengthAdjust="spacing" textLength="203.0615" x="277" y="96.4561">[0x34 0x5A 0xA5 rot] to set rotation</text><g class="message" data-participant-1="DWIN" data-participant-2="DWIN"><line style="stroke:#181818;stroke-width:1;" x1="735.9795" x2="777.9795" y1="131.6641" y2="131.6641"/><line style="stroke:#181818;stroke-width:1;" x1="777.9795" x2="777.9795" y1="131.6641" y2="144.6641"/><line style="stroke:#181818;stroke-width:1;" x1="736.9795" x2="777.9795" y1="144.6641" y2="144.6641"/><polygon fill="#181818" points="746.9795,140.6641,736.9795,144.6641,746.9795,148.6641,742.9795,144.6641" style="stroke:#181818;stroke-width:1;"/><text fill="#000000" font-family="sans-serif" font-size="13" lengthAdjust="spacing" textLength="114.937" x="742.9795" y="126.8076">append to send_buf</text></g><g class="message" data-participant-1="Display" data-participant-2="DWIN"><polygon fill="#181818" points="723.9795,171.0156,733.9795,175.0156,723.9795,179.0156,727.9795,175.0156" style="stroke:#181818;stroke-width:1;"/><line style="stroke:#181818;stroke-width:1;" x1="500.9517" x2="729.9795" y1="175.0156" y2="175.0156"/><text fill="#000000" font-family="sans-serif" font-size="13" lengthAdjust="spacing" textLength="74.4263" x="507.9517" y="170.1592">dwin_send ()</text></g><g class="message" data-participant-1="DWIN" data-participant-2="ESP32_UART"><polygon fill="#181818" points="852.9165,201.3672,862.9165,205.3672,852.9165,209.3672,856.9165,205.3672" style="stroke:#181818;stroke-width:1;"/><line style="stroke:#181818;stroke-width:1;" x1="735.9795" x2="858.9165" y1="205.3672" y2="205.3672"/><text fill="#000000" font-family="sans-serif" font-size="13" lengthAdjust="spacing" textLength="92.498" x="742.9795" y="200.5107">send_buf &amp; TBs</text></g><path d="M344,227.3672 L829.6416,227.3672 L829.6416,235.7188 L819.6416,245.7188 L344,245.7188 L344,227.3672" fill="#EEEEEE" style="stroke:#000000;stroke-width:1.5;"/><rect fill="none" height="255.5156" style="stroke:#000000;stroke-width:1.5;" width="582.6577" x="344" y="227.3672"/><text fill="#000000" font-family="sans-serif" font-size="13" font-weight="bold" lengthAdjust="spacing" textLength="440.6416" x="359" y="241.8623">void screen_add_icon(uint8_t libID, uint8_t picID, uint16_t x, uint16_t y)</text><g class="message" data-participant-1="Display" data-participant-2="DWIN"><polygon fill="#181818" points="723.9795,291.5977,733.9795,295.5977,723.9795,299.5977,727.9795,295.5977" style="stroke:#181818;stroke-width:1;"/><line style="stroke:#181818;stroke-width:1;" x1="500.9517" x2="729.9795" y1="295.5977" y2="295.5977"/><text fill="#000000" font-family="sans-serif" font-size="13" lengthAdjust="spacing" textLength="93.9517" x="507.9517" y="290.7412">add_byte (0x23)</text></g><path d="M354,250.7188 L354,325.7188 L495,325.7188 L495,260.7188 L485,250.7188 L354,250.7188" fill="#FEFFDD" style="stroke:#181818;stroke-width:0.5;"/><path d="M485,250.7188 L485,260.7188 L495,260.7188 L485,250.7188" fill="#FEFFDD" style="stroke:#181818;stroke-width:0.5;"/><text fill="#000000" font-family="sans-serif" font-size="13" lengthAdjust="spacing" textLength="76.5908" x="360" y="269.2139">Draw an Icon</text><text fill="#000000" font-family="sans-serif" font-size="13" lengthAdjust="spacing" textLength="113.4199" x="367.2236" y="285.5654">libID: Icon library ID</text><text fill="#000000" font-family="sans-serif" font-size="13" lengthAdjust="spacing" textLength="78.0254" x="367.2236" y="301.917">picID: Icon ID</text><text fill="#000000" font-family="sans-serif" font-size="13" lengthAdjust="spacing" textLength="112.7153" x="367.2236" y="318.2686">x/y: Upper-left point</text><g class="message" data-participant-1="Display" data-participant-2="DWIN"><polygon fill="#181818" points="723.9795,349.4766,733.9795,353.4766,723.9795,357.4766,727.9795,353.4766" style="stroke:#181818;stroke-width:1;"/><line style="stroke:#181818;stroke-width:1;" x1="500.9517" x2="729.9795" y1="353.4766" y2="353.4766"/><text fill="#000000" font-family="sans-serif" font-size="13" lengthAdjust="spacing" textLength="167.6289" x="507.9517" y="348.6201">add_word (x) &amp; add_word (y)</text></g><g class="message" data-participant-1="Display" data-participant-2="DWIN"><polygon fill="#181818" points="723.9795,379.8281,733.9795,383.8281,723.9795,387.8281,727.9795,383.8281" style="stroke:#181818;stroke-width:1;"/><line style="stroke:#181818;stroke-width:1;" x1="500.9517" x2="729.9795" y1="383.8281" y2="383.8281"/><text fill="#000000" font-family="sans-serif" font-size="13" lengthAdjust="spacing" textLength="134.8877" x="507.9517" y="378.9717">add_byte (0x80 | libID))</text></g><g class="message" data-participant-1="Display" data-participant-2="DWIN"><polygon fill="#181818" points="723.9795,410.1797,733.9795,414.1797,723.9795,418.1797,727.9795,414.1797" style="stroke:#181818;stroke-width:1;"/><line style="stroke:#181818;stroke-width:1;" x1="500.9517" x2="729.9795" y1="414.1797" y2="414.1797"/><text fill="#000000" font-family="sans-serif" font-size="13" lengthAdjust="spacing" textLength="99.709" x="507.9517" y="409.3232">add_byte (picID))</text></g><g class="message" data-participant-1="Display" data-participant-2="DWIN"><polygon fill="#181818" points="723.9795,440.5313,733.9795,444.5313,723.9795,448.5313,727.9795,444.5313" style="stroke:#181818;stroke-width:1;"/><line style="stroke:#181818;stroke-width:1;" x1="500.9517" x2="729.9795" y1="444.5313" y2="444.5313"/><text fill="#000000" font-family="sans-serif" font-size="13" lengthAdjust="spacing" textLength="74.4263" x="507.9517" y="439.6748">dwin_send ()</text></g><g class="message" data-participant-1="DWIN" data-participant-2="ESP32_UART"><polygon fill="#181818" points="852.9165,470.8828,862.9165,474.8828,852.9165,478.8828,856.9165,474.8828" style="stroke:#181818;stroke-width:1;"/><line style="stroke:#181818;stroke-width:1;" x1="735.9795" x2="858.9165" y1="474.8828" y2="474.8828"/><text fill="#000000" font-family="sans-serif" font-size="13" lengthAdjust="spacing" textLength="92.498" x="742.9795" y="470.0264">send_buf &amp; TBs</text></g><path d="M461,496.8828 L597.7617,496.8828 L597.7617,505.2344 L587.7617,515.2344 L461,515.2344 L461,496.8828" fill="#EEEEEE" style="stroke:#000000;stroke-width:1.5;"/><rect fill="none" height="122.4063" style="stroke:#000000;stroke-width:1.5;" width="465.6577" x="461" y="496.8828"/><text fill="#000000" font-family="sans-serif" font-size="13" font-weight="bold" lengthAdjust="spacing" textLength="91.7617" x="476" y="511.3779">screen_update</text><g class="message" data-participant-1="Display" data-participant-2="DWIN"><polygon fill="#181818" points="723.9795,533.5859,733.9795,537.5859,723.9795,541.5859,727.9795,537.5859" style="stroke:#181818;stroke-width:1;"/><line style="stroke:#181818;stroke-width:1;" x1="500.9517" x2="729.9795" y1="537.5859" y2="537.5859"/><text fill="#000000" font-family="sans-serif" font-size="13" lengthAdjust="spacing" textLength="117.7681" x="507.9517" y="532.7295">DWIN_update_lcd ()</text></g><g class="message" data-participant-1="DWIN" data-participant-2="DWIN"><line style="stroke:#181818;stroke-width:1;" x1="735.9795" x2="777.9795" y1="567.9375" y2="567.9375"/><line style="stroke:#181818;stroke-width:1;" x1="777.9795" x2="777.9795" y1="567.9375" y2="580.9375"/><line style="stroke:#181818;stroke-width:1;" x1="736.9795" x2="777.9795" y1="580.9375" y2="580.9375"/><polygon fill="#181818" points="746.9795,576.9375,736.9795,580.9375,746.9795,584.9375,742.9795,580.9375" style="stroke:#181818;stroke-width:1;"/><text fill="#000000" font-family="sans-serif" font-size="13" lengthAdjust="spacing" textLength="104.7744" x="742.9795" y="563.0811">dwin_send (0x3D)</text></g><g class="message" data-participant-1="DWIN" data-participant-2="ESP32_UART"><polygon fill="#181818" points="852.9165,607.2891,862.9165,611.2891,852.9165,615.2891,856.9165,611.2891" style="stroke:#181818;stroke-width:1;"/><line style="stroke:#181818;stroke-width:1;" x1="735.9795" x2="858.9165" y1="611.2891" y2="611.2891"/><text fill="#000000" font-family="sans-serif" font-size="13" lengthAdjust="spacing" textLength="92.498" x="742.9795" y="606.4326">send_buf &amp; TBs</text></g><path d="M269,633.2891 L1009.6587,633.2891 L1009.6587,641.6406 L999.6587,651.6406 L269,651.6406 L269,633.2891" fill="#EEEEEE" style="stroke:#000000;stroke-width:1.5;"/><rect fill="none" height="374.9219" style="stroke:#000000;stroke-width:1.5;" width="745.6587" x="269" y="633.2891"/><text fill="#000000" font-family="sans-serif" font-size="13" font-weight="bold" lengthAdjust="spacing" textLength="695.6587" x="284" y="647.7842">void screen_add_rect(uint8_t mode, uint16_t color, uint16_t xStart, uint16_t yStart, uint16_t xEnd, uint16_t yEnd)</text><g class="message" data-participant-1="Display" data-participant-2="DWIN"><polygon fill="#181818" points="723.9795,705.6953,733.9795,709.6953,723.9795,713.6953,727.9795,709.6953" style="stroke:#181818;stroke-width:1;"/><line style="stroke:#181818;stroke-width:1;" x1="500.9517" x2="729.9795" y1="709.6953" y2="709.6953"/><text fill="#000000" font-family="sans-serif" font-size="13" lengthAdjust="spacing" textLength="93.9517" x="507.9517" y="704.8389">add_byte (0x05)</text></g><path d="M279,656.6406 L279,747.6406 L495,747.6406 L495,666.6406 L485,656.6406 L279,656.6406" fill="#FEFFDD" style="stroke:#181818;stroke-width:0.5;"/><path d="M485,656.6406 L485,666.6406 L495,666.6406 L485,656.6406" fill="#FEFFDD" style="stroke:#181818;stroke-width:0.5;"/><text fill="#000000" font-family="sans-serif" font-size="13" lengthAdjust="spacing" textLength="98.2681" x="285" y="675.1357">Draw a rectangle</text><text fill="#000000" font-family="sans-serif" font-size="13" lengthAdjust="spacing" textLength="188.2207" x="292.2236" y="691.4873">mode: 0=frame, 1=fill, 2=XOR fill</text><text fill="#000000" font-family="sans-serif" font-size="13" lengthAdjust="spacing" textLength="125.728" x="292.2236" y="707.8389">color: Rectangle color</text><text fill="#000000" font-family="sans-serif" font-size="13" lengthAdjust="spacing" textLength="164.7471" x="292.2236" y="724.1904">xStart/yStart: upper left point</text><text fill="#000000" font-family="sans-serif" font-size="13" lengthAdjust="spacing" textLength="161.8652" x="292.2236" y="740.542">xEnd/yEnd: lower right point</text><g class="message" data-participant-1="Display" data-participant-2="DWIN"><polygon fill="#181818" points="723.9795,774.75,733.9795,778.75,723.9795,782.75,727.9795,778.75" style="stroke:#181818;stroke-width:1;"/><line style="stroke:#181818;stroke-width:1;" x1="500.9517" x2="729.9795" y1="778.75" y2="778.75"/><text fill="#000000" font-family="sans-serif" font-size="13" lengthAdjust="spacing" textLength="98.2808" x="507.9517" y="773.8936">add_byte (mode)</text></g><path d="M286,758.3984 L286,784.3984 L495,784.3984 L495,768.3984 L485,758.3984 L286,758.3984" fill="#FEFFDD" style="stroke:#181818;stroke-width:0.5;"/><path d="M485,758.3984 L485,768.3984 L495,768.3984 L485,758.3984" fill="#FEFFDD" style="stroke:#181818;stroke-width:0.5;"/><text fill="#000000" font-family="sans-serif" font-size="13" lengthAdjust="spacing" textLength="188.2207" x="292" y="776.8936">mode: 0=frame, 1=fill, 2=XOR fill</text><g class="message" data-participant-1="Display" data-participant-2="DWIN"><polygon fill="#181818" points="723.9795,811.1016,733.9795,815.1016,723.9795,819.1016,727.9795,815.1016" style="stroke:#181818;stroke-width:1;"/><line style="stroke:#181818;stroke-width:1;" x1="500.9517" x2="729.9795" y1="815.1016" y2="815.1016"/><text fill="#000000" font-family="sans-serif" font-size="13" lengthAdjust="spacing" textLength="97.5444" x="507.9517" y="810.2451">add_word (color)</text></g><path d="M362,794.75 L362,820.75 L495,820.75 L495,804.75 L485,794.75 L362,794.75" fill="#FEFFDD" style="stroke:#181818;stroke-width:0.5;"/><path d="M485,794.75 L485,804.75 L495,804.75 L485,794.75" fill="#FEFFDD" style="stroke:#181818;stroke-width:0.5;"/><text fill="#000000" font-family="sans-serif" font-size="13" lengthAdjust="spacing" textLength="112.7407" x="368" y="813.2451">uint16_t color value</text><g class="message" data-participant-1="Display" data-participant-2="DWIN"><polygon fill="#181818" points="723.9795,844.4531,733.9795,848.4531,723.9795,852.4531,727.9795,848.4531" style="stroke:#181818;stroke-width:1;"/><line style="stroke:#181818;stroke-width:1;" x1="500.9517" x2="729.9795" y1="848.4531" y2="848.4531"/><text fill="#000000" font-family="sans-serif" font-size="13" lengthAdjust="spacing" textLength="103.3208" x="507.9517" y="843.5967">add_word (xStart)</text></g><g class="message" data-participant-1="Display" data-participant-2="DWIN"><polygon fill="#181818" points="723.9795,874.8047,733.9795,878.8047,723.9795,882.8047,727.9795,878.8047" style="stroke:#181818;stroke-width:1;"/><line style="stroke:#181818;stroke-width:1;" x1="500.9517" x2="729.9795" y1="878.8047" y2="878.8047"/><text fill="#000000" font-family="sans-serif" font-size="13" lengthAdjust="spacing" textLength="103.3208" x="507.9517" y="873.9482">add_word (yStart)</text></g><g class="message" data-participant-1="Display" data-participant-2="DWIN"><polygon fill="#181818" points="723.9795,905.1563,733.9795,909.1563,723.9795,913.1563,727.9795,909.1563" style="stroke:#181818;stroke-width:1;"/><line style="stroke:#181818;stroke-width:1;" x1="500.9517" x2="729.9795" y1="909.1563" y2="909.1563"/><text fill="#000000" font-family="sans-serif" font-size="13" lengthAdjust="spacing" textLength="98.998" x="507.9517" y="904.2998">add_word (xEnd)</text></g><g class="message" data-participant-1="Display" data-participant-2="DWIN"><polygon fill="#181818" points="723.9795,935.5078,733.9795,939.5078,723.9795,943.5078,727.9795,939.5078" style="stroke:#181818;stroke-width:1;"/><line style="stroke:#181818;stroke-width:1;" x1="500.9517" x2="729.9795" y1="939.5078" y2="939.5078"/><text fill="#000000" font-family="sans-serif" font-size="13" lengthAdjust="spacing" textLength="98.998" x="507.9517" y="934.6514">add_word (yEnd)</text></g><g class="message" data-participant-1="Display" data-participant-2="DWIN"><polygon fill="#181818" points="723.9795,965.8594,733.9795,969.8594,723.9795,973.8594,727.9795,969.8594" style="stroke:#181818;stroke-width:1;"/><line style="stroke:#181818;stroke-width:1;" x1="500.9517" x2="729.9795" y1="969.8594" y2="969.8594"/><text fill="#000000" font-family="sans-serif" font-size="13" lengthAdjust="spacing" textLength="74.4263" x="507.9517" y="965.0029">dwin_send ()</text></g><g class="message" data-participant-1="DWIN" data-participant-2="ESP32_UART"><polygon fill="#181818" points="852.9165,996.2109,862.9165,1000.2109,852.9165,1004.2109,856.9165,1000.2109" style="stroke:#181818;stroke-width:1;"/><line style="stroke:#181818;stroke-width:1;" x1="735.9795" x2="858.9165" y1="1000.2109" y2="1000.2109"/><text fill="#000000" font-family="sans-serif" font-size="13" lengthAdjust="spacing" textLength="92.498" x="742.9795" y="995.3545">send_buf &amp; TBs</text></g><path d="M9,1022.2109 L1040.7051,1022.2109 L1040.7051,1030.5625 L1030.7051,1040.5625 L9,1040.5625 L9,1022.2109" fill="#EEEEEE" style="stroke:#000000;stroke-width:1.5;"/><rect fill="none" height="656.1953" style="stroke:#000000;stroke-width:1.5;" width="1036.7051" x="9" y="1022.2109"/><text fill="#000000" font-family="sans-serif" font-size="13" font-weight="bold" lengthAdjust="spacing" textLength="986.7051" x="24" y="1036.7061">screen_draw_int(uint8_t bShow, bool zeroFill, uint8_t zeroMode, uint8_t size, uint16_t color, uint16_t bColor, uint8_t iNum, uint16_t x, uint16_t y, uint16_t value)</text><g class="message" data-participant-1="Display" data-participant-2="DWIN"><polygon fill="#181818" points="723.9795,1143.6719,733.9795,1147.6719,723.9795,1151.6719,727.9795,1147.6719" style="stroke:#181818;stroke-width:1;"/><line style="stroke:#181818;stroke-width:1;" x1="500.9517" x2="729.9795" y1="1147.6719" y2="1147.6719"/><text fill="#000000" font-family="sans-serif" font-size="13" lengthAdjust="spacing" textLength="93.9517" x="507.9517" y="1142.8154">add_byte (0x14)</text></g><path d="M19,1045.5625 L19,1234.5625 L495,1234.5625 L495,1055.5625 L485,1045.5625 L19,1045.5625" fill="#FEFFDD" style="stroke:#181818;stroke-width:0.5;"/><path d="M485,1045.5625 L485,1055.5625 L495,1055.5625 L485,1045.5625" fill="#FEFFDD" style="stroke:#181818;stroke-width:0.5;"/><text fill="#000000" font-family="sans-serif" font-size="13" lengthAdjust="spacing" textLength="132.228" x="25" y="1064.0576">Draw a positive integer</text><text fill="#000000" font-family="sans-serif" font-size="13" lengthAdjust="spacing" textLength="438.2485" x="39.4473" y="1080.4092">bShow: true=display background color; false=don't display background color</text><text fill="#000000" font-family="sans-serif" font-size="13" lengthAdjust="spacing" textLength="221.8125" x="39.4473" y="1096.7607">zeroFill: true=zero fill; false=no zero fill</text><text fill="#000000" font-family="sans-serif" font-size="13" lengthAdjust="spacing" textLength="419.1802" x="39.4473" y="1113.1123">zeroMode: 1=leading 0 displayed as 0; 0=leading 0 displayed as a space</text><text fill="#000000" font-family="sans-serif" font-size="13" lengthAdjust="spacing" textLength="83.0845" x="39.4473" y="1129.4639">size: Font size</text><text fill="#000000" font-family="sans-serif" font-size="13" lengthAdjust="spacing" textLength="124.2681" x="39.4473" y="1145.8154">color: Character color</text><text fill="#000000" font-family="sans-serif" font-size="13" lengthAdjust="spacing" textLength="146.688" x="39.4473" y="1162.167">bColor: Background color</text><text fill="#000000" font-family="sans-serif" font-size="13" lengthAdjust="spacing" textLength="132.209" x="39.4473" y="1178.5186">iNum: Number of digits</text><text fill="#000000" font-family="sans-serif" font-size="13" lengthAdjust="spacing" textLength="145.2344" x="39.4473" y="1194.8701">x/y: Upper-left coordinate</text><text fill="#000000" font-family="sans-serif" font-size="13" lengthAdjust="spacing" textLength="113.4644" x="39.4473" y="1211.2217">value: Integer value</text><text fill="#000000" font-family="sans-serif" font-size="13" lengthAdjust="spacing" textLength="441.4922" x="39.4473" y="1227.5732">dwin_add_byte((bShow * 0x80) | (zeroFill * 0x20) | (zeroMode * 0x10) | size);</text><g class="message" data-participant-1="Display" data-participant-2="DWIN"><polygon fill="#181818" points="723.9795,1310.8359,733.9795,1314.8359,723.9795,1318.8359,727.9795,1314.8359" style="stroke:#181818;stroke-width:1;"/><line style="stroke:#181818;stroke-width:1;" x1="500.9517" x2="729.9795" y1="1314.8359" y2="1314.8359"/><text fill="#000000" font-family="sans-serif" font-size="13" lengthAdjust="spacing" textLength="134.4053" x="507.9517" y="1309.9795">add_byte (format_byte)</text></g><path d="M57,1245.4297 L57,1369.4297 L495,1369.4297 L495,1255.4297 L485,1245.4297 L57,1245.4297" fill="#FEFFDD" style="stroke:#181818;stroke-width:0.5;"/><path d="M485,1245.4297 L485,1255.4297 L495,1255.4297 L485,1245.4297" fill="#FEFFDD" style="stroke:#181818;stroke-width:0.5;"/><text fill="#000000" font-family="sans-serif" font-size="13" lengthAdjust="spacing" textLength="70.8145" x="63" y="1263.9248">Bit 7: bshow</text><text fill="#000000" font-family="sans-serif" font-size="13" lengthAdjust="spacing" textLength="226.9287" x="63" y="1280.2764">Bit 6: 1 = signed; 0 = unsigned number;</text><text fill="#000000" font-family="sans-serif" font-size="13" lengthAdjust="spacing" textLength="75.1309" x="63" y="1296.6279">Bit 5: zeroFill</text><text fill="#000000" font-family="sans-serif" font-size="13" lengthAdjust="spacing" textLength="91.0444" x="63" y="1312.9795">Bit 4: zeroMode</text><text fill="#000000" font-family="sans-serif" font-size="13" lengthAdjust="spacing" textLength="67.9136" x="63" y="1329.3311">Bit 3-0: size</text><text fill="#000000" font-family="sans-serif" font-size="13" lengthAdjust="spacing" textLength="3.6118" x="63" y="1345.6826">&#160;</text><text fill="#000000" font-family="sans-serif" font-size="13" lengthAdjust="spacing" textLength="417.6313" x="63" y="1362.0342">format_byte: (bShow * 0x80) | (zeroFill * 0x20) | (zeroMode * 0x10) | size</text><g class="message" data-participant-1="Display" data-participant-2="DWIN"><polygon fill="#181818" points="723.9795,1393.2422,733.9795,1397.2422,723.9795,1401.2422,727.9795,1397.2422" style="stroke:#181818;stroke-width:1;"/><line style="stroke:#181818;stroke-width:1;" x1="500.9517" x2="729.9795" y1="1397.2422" y2="1397.2422"/><text fill="#000000" font-family="sans-serif" font-size="13" lengthAdjust="spacing" textLength="98.2808" x="507.9517" y="1392.3857">add_byte (mode)</text></g><g class="message" data-participant-1="Display" data-participant-2="DWIN"><polygon fill="#181818" points="723.9795,1423.5938,733.9795,1427.5938,723.9795,1431.5938,727.9795,1427.5938" style="stroke:#181818;stroke-width:1;"/><line style="stroke:#181818;stroke-width:1;" x1="500.9517" x2="729.9795" y1="1427.5938" y2="1427.5938"/><text fill="#000000" font-family="sans-serif" font-size="13" lengthAdjust="spacing" textLength="97.5444" x="507.9517" y="1422.7373">add_word (color)</text></g><g class="message" data-participant-1="Display" data-participant-2="DWIN"><polygon fill="#181818" points="723.9795,1453.9453,733.9795,1457.9453,723.9795,1461.9453,727.9795,1457.9453" style="stroke:#181818;stroke-width:1;"/><line style="stroke:#181818;stroke-width:1;" x1="500.9517" x2="729.9795" y1="1457.9453" y2="1457.9453"/><text fill="#000000" font-family="sans-serif" font-size="13" lengthAdjust="spacing" textLength="107.6626" x="507.9517" y="1453.0889">add_word (bColor)</text></g><g class="message" data-participant-1="Display" data-participant-2="DWIN"><polygon fill="#181818" points="723.9795,1484.2969,733.9795,1488.2969,723.9795,1492.2969,727.9795,1488.2969" style="stroke:#181818;stroke-width:1;"/><line style="stroke:#181818;stroke-width:1;" x1="500.9517" x2="729.9795" y1="1488.2969" y2="1488.2969"/><text fill="#000000" font-family="sans-serif" font-size="13" lengthAdjust="spacing" textLength="96.0972" x="507.9517" y="1483.4404">add_byte (iNum)</text></g><g class="message" data-participant-1="Display" data-participant-2="DWIN"><polygon fill="#181818" points="723.9795,1514.6484,733.9795,1518.6484,723.9795,1522.6484,727.9795,1518.6484" style="stroke:#181818;stroke-width:1;"/><line style="stroke:#181818;stroke-width:1;" x1="500.9517" x2="729.9795" y1="1518.6484" y2="1518.6484"/><text fill="#000000" font-family="sans-serif" font-size="13" lengthAdjust="spacing" textLength="72.9917" x="507.9517" y="1513.792">add_byte (0)</text></g><g class="message" data-participant-1="Display" data-participant-2="DWIN"><polygon fill="#181818" points="723.9795,1545,733.9795,1549,723.9795,1553,727.9795,1549" style="stroke:#181818;stroke-width:1;"/><line style="stroke:#181818;stroke-width:1;" x1="500.9517" x2="729.9795" y1="1549" y2="1549"/><text fill="#000000" font-family="sans-serif" font-size="13" lengthAdjust="spacing" textLength="75.8672" x="507.9517" y="1544.1436">add_word (x)</text></g><g class="message" data-participant-1="Display" data-participant-2="DWIN"><polygon fill="#181818" points="723.9795,1575.3516,733.9795,1579.3516,723.9795,1583.3516,727.9795,1579.3516" style="stroke:#181818;stroke-width:1;"/><line style="stroke:#181818;stroke-width:1;" x1="500.9517" x2="729.9795" y1="1579.3516" y2="1579.3516"/><text fill="#000000" font-family="sans-serif" font-size="13" lengthAdjust="spacing" textLength="75.8672" x="507.9517" y="1574.4951">add_word (y)</text></g><g class="message" data-participant-1="Display" data-participant-2="DWIN"><polygon fill="#181818" points="723.9795,1605.7031,733.9795,1609.7031,723.9795,1613.7031,727.9795,1609.7031" style="stroke:#181818;stroke-width:1;"/><line style="stroke:#181818;stroke-width:1;" x1="500.9517" x2="729.9795" y1="1609.7031" y2="1609.7031"/><text fill="#000000" font-family="sans-serif" font-size="13" lengthAdjust="spacing" textLength="211.0278" x="507.9517" y="1604.8467">dwin_write_big_endian_int64 (value)</text></g><g class="message" data-participant-1="Display" data-participant-2="DWIN"><polygon fill="#181818" points="723.9795,1636.0547,733.9795,1640.0547,723.9795,1644.0547,727.9795,1640.0547" style="stroke:#181818;stroke-width:1;"/><line style="stroke:#181818;stroke-width:1;" x1="500.9517" x2="729.9795" y1="1640.0547" y2="1640.0547"/><text fill="#000000" font-family="sans-serif" font-size="13" lengthAdjust="spacing" textLength="74.4263" x="507.9517" y="1635.1982">dwin_send ()</text></g><g class="message" data-participant-1="DWIN" data-participant-2="ESP32_UART"><polygon fill="#181818" points="852.9165,1666.4063,862.9165,1670.4063,852.9165,1674.4063,856.9165,1670.4063" style="stroke:#181818;stroke-width:1;"/><line style="stroke:#181818;stroke-width:1;" x1="735.9795" x2="858.9165" y1="1670.4063" y2="1670.4063"/><text fill="#000000" font-family="sans-serif" font-size="13" lengthAdjust="spacing" textLength="92.498" x="742.9795" y="1665.5498">send_buf &amp; TBs</text></g><path d="M19,1692.4063 L938.7261,1692.4063 L938.7261,1700.7578 L928.7261,1710.7578 L19,1710.7578 L19,1692.4063" fill="#EEEEEE" style="stroke:#000000;stroke-width:1.5;"/><rect fill="none" height="499.7344" style="stroke:#000000;stroke-width:1.5;" width="924.7261" x="19" y="1692.4063"/><text fill="#000000" font-family="sans-serif" font-size="13" font-weight="bold" lengthAdjust="spacing" textLength="874.7261" x="34" y="1706.9014">void screen_draw_string(bool widthAdjust, bool bShow, uint8_t size, uint16_t color, uint16_t bColor, uint16_t x, uint16_t y, const char *string)</text><g class="message" data-participant-1="Display" data-participant-2="DWIN"><polygon fill="#181818" points="723.9795,1789.3398,733.9795,1793.3398,723.9795,1797.3398,727.9795,1793.3398" style="stroke:#181818;stroke-width:1;"/><line style="stroke:#181818;stroke-width:1;" x1="500.9517" x2="729.9795" y1="1793.3398" y2="1793.3398"/><text fill="#000000" font-family="sans-serif" font-size="13" lengthAdjust="spacing" textLength="93.9517" x="507.9517" y="1788.4834">add_byte (0x11)</text></g><path d="M29,1715.7578 L29,1855.7578 L495,1855.7578 L495,1725.7578 L485,1715.7578 L29,1715.7578" fill="#FEFFDD" style="stroke:#181818;stroke-width:0.5;"/><path d="M485,1715.7578 L485,1725.7578 L495,1725.7578 L485,1715.7578" fill="#FEFFDD" style="stroke:#181818;stroke-width:0.5;"/><text fill="#000000" font-family="sans-serif" font-size="13" lengthAdjust="spacing" textLength="76.5781" x="35" y="1734.2529">Draw a string</text><text fill="#000000" font-family="sans-serif" font-size="13" lengthAdjust="spacing" textLength="378.644" x="42.2236" y="1750.6045">widthAdjust: true=self-adjust character width; false=no adjustment</text><text fill="#000000" font-family="sans-serif" font-size="13" lengthAdjust="spacing" textLength="438.2485" x="42.2236" y="1766.9561">bShow: true=display background color; false=don't display background color</text><text fill="#000000" font-family="sans-serif" font-size="13" lengthAdjust="spacing" textLength="83.0845" x="42.2236" y="1783.3076">size: Font size</text><text fill="#000000" font-family="sans-serif" font-size="13" lengthAdjust="spacing" textLength="124.2681" x="42.2236" y="1799.6592">color: Character color</text><text fill="#000000" font-family="sans-serif" font-size="13" lengthAdjust="spacing" textLength="146.688" x="42.2236" y="1816.0107">bColor: Background color</text><text fill="#000000" font-family="sans-serif" font-size="13" lengthAdjust="spacing" textLength="216.7725" x="42.2236" y="1832.3623">x/y: Upper-left coordinate of the string</text><text fill="#000000" font-family="sans-serif" font-size="13" lengthAdjust="spacing" textLength="101.8735" x="42.2236" y="1848.7139">*string: The string</text><g class="message" data-participant-1="Display" data-participant-2="DWIN"><polygon fill="#181818" points="723.9795,1923.8008,733.9795,1927.8008,723.9795,1931.8008,727.9795,1927.8008" style="stroke:#181818;stroke-width:1;"/><line style="stroke:#181818;stroke-width:1;" x1="500.9517" x2="729.9795" y1="1927.8008" y2="1927.8008"/><text fill="#000000" font-family="sans-serif" font-size="13" lengthAdjust="spacing" textLength="134.4053" x="507.9517" y="1922.9443">add_byte (format_byte)</text></g><path d="M150,1866.5703 L150,1974.5703 L495,1974.5703 L495,1876.5703 L485,1866.5703 L150,1866.5703" fill="#FEFFDD" style="stroke:#181818;stroke-width:0.5;"/><path d="M485,1866.5703 L485,1876.5703 L495,1876.5703 L485,1866.5703" fill="#FEFFDD" style="stroke:#181818;stroke-width:0.5;"/><text fill="#000000" font-family="sans-serif" font-size="13" lengthAdjust="spacing" textLength="99.7153" x="156" y="1885.0654">Bit 7: widthAdjust</text><text fill="#000000" font-family="sans-serif" font-size="13" lengthAdjust="spacing" textLength="72.9854" x="156" y="1901.417">Bit 6: bShow</text><text fill="#000000" font-family="sans-serif" font-size="13" lengthAdjust="spacing" textLength="109.1035" x="156" y="1917.7686">Bit 5-4: Unused (0)</text><text fill="#000000" font-family="sans-serif" font-size="13" lengthAdjust="spacing" textLength="67.9136" x="156" y="1934.1201">Bit 3-0: size</text><text fill="#000000" font-family="sans-serif" font-size="13" lengthAdjust="spacing" textLength="3.6118" x="156" y="1950.4717">&#160;</text><text fill="#000000" font-family="sans-serif" font-size="13" lengthAdjust="spacing" textLength="324.6763" x="156" y="1966.8232">format_byte: (widthAdjust * 0x80) | (bShow * 0x40) | size</text><g class="message" data-participant-1="Display" data-participant-2="DWIN"><polygon fill="#181818" points="723.9795,1998.0313,733.9795,2002.0313,723.9795,2006.0313,727.9795,2002.0313" style="stroke:#181818;stroke-width:1;"/><line style="stroke:#181818;stroke-width:1;" x1="500.9517" x2="729.9795" y1="2002.0313" y2="2002.0313"/><text fill="#000000" font-family="sans-serif" font-size="13" lengthAdjust="spacing" textLength="97.5444" x="507.9517" y="1997.1748">add_word (color)</text></g><g class="message" data-participant-1="Display" data-participant-2="DWIN"><polygon fill="#181818" points="723.9795,2028.3828,733.9795,2032.3828,723.9795,2036.3828,727.9795,2032.3828" style="stroke:#181818;stroke-width:1;"/><line style="stroke:#181818;stroke-width:1;" x1="500.9517" x2="729.9795" y1="2032.3828" y2="2032.3828"/><text fill="#000000" font-family="sans-serif" font-size="13" lengthAdjust="spacing" textLength="107.6626" x="507.9517" y="2027.5264">add_word (bColor)</text></g><g class="message" data-participant-1="Display" data-participant-2="DWIN"><polygon fill="#181818" points="723.9795,2058.7344,733.9795,2062.7344,723.9795,2066.7344,727.9795,2062.7344" style="stroke:#181818;stroke-width:1;"/><line style="stroke:#181818;stroke-width:1;" x1="500.9517" x2="729.9795" y1="2062.7344" y2="2062.7344"/><text fill="#000000" font-family="sans-serif" font-size="13" lengthAdjust="spacing" textLength="75.8672" x="507.9517" y="2057.8779">add_word (x)</text></g><g class="message" data-participant-1="Display" data-participant-2="DWIN"><polygon fill="#181818" points="723.9795,2089.0859,733.9795,2093.0859,723.9795,2097.0859,727.9795,2093.0859" style="stroke:#181818;stroke-width:1;"/><line style="stroke:#181818;stroke-width:1;" x1="500.9517" x2="729.9795" y1="2093.0859" y2="2093.0859"/><text fill="#000000" font-family="sans-serif" font-size="13" lengthAdjust="spacing" textLength="75.8672" x="507.9517" y="2088.2295">add_word (y)</text></g><g class="message" data-participant-1="Display" data-participant-2="DWIN"><polygon fill="#181818" points="723.9795,2119.4375,733.9795,2123.4375,723.9795,2127.4375,727.9795,2123.4375" style="stroke:#181818;stroke-width:1;"/><line style="stroke:#181818;stroke-width:1;" x1="500.9517" x2="729.9795" y1="2123.4375" y2="2123.4375"/><text fill="#000000" font-family="sans-serif" font-size="13" lengthAdjust="spacing" textLength="101.1563" x="507.9517" y="2118.5811">add_string(string)</text></g><g class="message" data-participant-1="Display" data-participant-2="DWIN"><polygon fill="#181818" points="723.9795,2149.7891,733.9795,2153.7891,723.9795,2157.7891,727.9795,2153.7891" style="stroke:#181818;stroke-width:1;"/><line style="stroke:#181818;stroke-width:1;" x1="500.9517" x2="729.9795" y1="2153.7891" y2="2153.7891"/><text fill="#000000" font-family="sans-serif" font-size="13" lengthAdjust="spacing" textLength="74.4263" x="507.9517" y="2148.9326">dwin_send ()</text></g><g class="message" data-participant-1="DWIN" data-participant-2="ESP32_UART"><polygon fill="#181818" points="852.9165,2180.1406,862.9165,2184.1406,852.9165,2188.1406,856.9165,2184.1406" style="stroke:#181818;stroke-width:1;"/><line style="stroke:#181818;stroke-width:1;" x1="735.9795" x2="858.9165" y1="2184.1406" y2="2184.1406"/><text fill="#000000" font-family="sans-serif" font-size="13" lengthAdjust="spacing" textLength="92.498" x="742.9795" y="2179.2842">send_buf &amp; TBs</text></g><!--SRC=[jLPRRzis57xthpXFcrN4Y9muQS700vAw1VBGRiW57J0C0YNHCZUP52Wgjelz-1sIaYpPaUKcgHu4yl3eNB_pKOcIHGPFaiUGHuen4UHC1p7FivHk0YNriE12VmWquDeR03upTmYZts3sxVOh0Hh7GRZH38OUpAK2HgC5645kzON4evJDDO6__FNv1FprnJM-hY-CpRz1Iq2VPaqrbyBvGCCD1rd6HEmK1Vegviy74g-uYHzLXrxBpAVxFyxFWiVhkmTIcu1VuE4c7-1kC4Zsgc1ouf4KTVef3szd9r1jCnvLs_4bxjUDzQQtJlxwxDnh5yVky2D5Lq05t4Pb9SnZVHChCsj5rGPkP_MnZQKyReZNfni2ZrWwDJ8E89COe3qr5JAEkyDSIOL5N7jOfEtscBm- -F2VYzVhrRPnTwczifTb6uiifbrvcdUf4AJHdf-zC12xixU0bMBHTggMCcODw4GobQe9gtjDbMvYQrUm_YJYvZbkZsYJV_4y_BOG11Cc5KdA6aTWuoNWJ-UABZ7myNJEq_G4pgP__du7PjtIjkaGkAjCEK5BnMLuwl8YK1YymWvUQrrCxjHaI22LAzHJF5bq0hkl2YOLRvUXZillmCpO3FVCjXiCJpGj-gVFbiJhKziSfxO-38pILhVIsynZZDWAi1Or_iFxXLoTG2Xb2j-PafzjkQjJ8_bIJuYHvFpxeNa9Fsu5Hfr_BPPTBDrOstuSCJRZoKvdOR0pDPdCkUPF3D0qIrWRwpPP0beLR5fUiH3Iw5zJ8YoiJUOAvZJDyLoANpLqQRNCLdKhBPkjXMfbIaYePNiVVh607qzJHcCk4l0hdom6ceD_XSFGSKOXpsZKvWVJ7mAVfN2jUeuDFYweef76yTrFnVMFmCsXV4rJ2U0hH1joZa4bNETjfjYv-oA9-EQYkWkgn_OTRqxNgyPOLez5VOM0uT0s4Dw1kUSylEY6LUcjx6mhCrMrih6LcL9uLqVUlGvi-2ErfDfkkgZwXcjuJo3CCQYMy18R2bFqcWWMOmDnNGYt0s7BTjNIlo0rXbho2QaXqfAVZtpYsbkB6-4IU5MTMbKghVyWdnz7pmUq70nx2S40iPyrl47_VrOlCNSPiG1TAOx_C25F0gmRfy8mxEK4XeTexGt_bIsfvreXHGmjaQzuh1VNyJz5hajgBsd-1Ip-76_ZZswENo6Fm3ldznZk7dTmTydSpb0Dw4OE9Q_cB9sFg9LOtux3h5w3QPt2aZL-NNu2xNVHR0_5zj9hDsyQejKBjbkcilu47jfdRqzpZORiafqjS9lHHiXTZwB8MMmdy8VOg-6foM5RKfkyXgnUmaC_aK2CIZcx1qVffNm1_mC0]--></g></svg>