<svg xmlns="http://www.w3.org/2000/svg" xmlns:xlink="http://www.w3.org/1999/xlink" contentStyleType="text/css" data-diagram-type="SEQUENCE" height="965px" preserveAspectRatio="none" style="width:1472px;height:965px;background:#FFFFFF;" version="1.1" viewBox="0 0 1472 965" width="1472px" zoomAndPan="magnify"><defs/><g><g><title>Main_APP</title><rect fill="#000000" fill-opacity="0.00000" height="891.4922" width="8" x="41.0723" y="37.6094"/><line style="stroke:#181818;stroke-width:0.5;stroke-dasharray:5,5;" x1="45" x2="45" y1="37.6094" y2="929.1016"/></g><g><title>Display</title><rect fill="#000000" fill-opacity="0.00000" height="891.4922" width="8" x="319.4165" y="37.6094"/><line style="stroke:#181818;stroke-width:0.5;stroke-dasharray:5,5;" x1="322.4648" x2="322.4648" y1="37.6094" y2="929.1016"/></g><g><title>DWIN</title><rect fill="#000000" fill-opacity="0.00000" height="891.4922" width="8" x="518.2754" y="37.6094"/><line style="stroke:#181818;stroke-width:0.5;stroke-dasharray:5,5;" x1="521.6133" x2="521.6133" y1="37.6094" y2="929.1016"/></g><g><title>Serial_Prompt</title><rect fill="#000000" fill-opacity="0.00000" height="891.4922" width="8" x="605.2891" y="37.6094"/><line style="stroke:#181818;stroke-width:0.5;stroke-dasharray:5,5;" x1="608.9375" x2="608.9375" y1="37.6094" y2="929.1016"/></g><g><title>WIFI</title><rect fill="#000000" fill-opacity="0.00000" height="891.4922" width="8" x="688.4131" y="37.6094"/><line style="stroke:#181818;stroke-width:0.5;stroke-dasharray:5,5;" x1="691.6406" x2="691.6406" y1="37.6094" y2="929.1016"/></g><g><title>Device_config</title><rect fill="#000000" fill-opacity="0.00000" height="891.4922" width="8" x="892.3247" y="37.6094"/><line style="stroke:#181818;stroke-width:0.5;stroke-dasharray:5,5;" x1="895.356" x2="895.356" y1="37.6094" y2="929.1016"/></g><g><title>Printer_base</title><rect fill="#000000" fill-opacity="0.00000" height="891.4922" width="8" x="1054.3418" y="37.6094"/><line style="stroke:#181818;stroke-width:0.5;stroke-dasharray:5,5;" x1="1057.6523" x2="1057.6523" y1="37.6094" y2="929.1016"/></g><g><title>Printers</title><rect fill="#000000" fill-opacity="0.00000" height="891.4922" width="8" x="1219.2344" y="37.6094"/><line style="stroke:#181818;stroke-width:0.5;stroke-dasharray:5,5;" x1="1223.1172" x2="1223.1172" y1="37.6094" y2="929.1016"/></g><g><title>Fetch_Task</title><rect fill="#000000" fill-opacity="0.00000" height="891.4922" width="8" x="1303.9204" y="37.6094"/><line style="stroke:#181818;stroke-width:0.5;stroke-dasharray:5,5;" x1="1307.3516" x2="1307.3516" y1="37.6094" y2="929.1016"/></g><g><title>FETCH_TASK</title><rect fill="#000000" fill-opacity="0.00000" height="891.4922" width="8" x="1409.9961" y="37.6094"/><line style="stroke:#181818;stroke-width:0.5;stroke-dasharray:5,5;" x1="1413.4893" x2="1413.4893" y1="37.6094" y2="929.1016"/></g><g class="participant participant-head" data-participant="Main_APP"><rect fill="#E2E2F0" height="31.6094" rx="2.5" ry="2.5" style="stroke:#181818;stroke-width:0.5;" width="80.1445" x="5" y="5"/><text fill="#000000" font-family="sans-serif" font-size="14" lengthAdjust="spacing" textLength="66.1445" x="12" y="26.5332">Main_APP</text></g><g class="participant participant-tail" data-participant="Main_APP"><rect fill="#E2E2F0" height="31.6094" rx="2.5" ry="2.5" style="stroke:#181818;stroke-width:0.5;" width="80.1445" x="5" y="928.1016"/><text fill="#000000" font-family="sans-serif" font-size="14" lengthAdjust="spacing" textLength="66.1445" x="12" y="949.6348">Main_APP</text></g><g class="participant participant-head" data-participant="Display"><rect fill="#E2E2F0" height="31.6094" rx="2.5" ry="2.5" style="stroke:#181818;stroke-width:0.5;" width="59.9033" x="293.4648" y="5"/><text fill="#000000" font-family="sans-serif" font-size="14" lengthAdjust="spacing" textLength="45.9033" x="300.4648" y="26.5332">Display</text></g><g class="participant participant-tail" data-participant="Display"><rect fill="#E2E2F0" height="31.6094" rx="2.5" ry="2.5" style="stroke:#181818;stroke-width:0.5;" width="59.9033" x="293.4648" y="928.1016"/><text fill="#000000" font-family="sans-serif" font-size="14" lengthAdjust="spacing" textLength="45.9033" x="300.4648" y="949.6348">Display</text></g><g class="participant participant-head" data-participant="DWIN"><rect fill="#E2E2F0" height="31.6094" rx="2.5" ry="2.5" style="stroke:#181818;stroke-width:0.5;" width="51.3242" x="496.6133" y="5"/><text fill="#000000" font-family="sans-serif" font-size="14" lengthAdjust="spacing" textLength="37.3242" x="503.6133" y="26.5332">DWIN</text></g><g class="participant participant-tail" data-participant="DWIN"><rect fill="#E2E2F0" height="31.6094" rx="2.5" ry="2.5" style="stroke:#181818;stroke-width:0.5;" width="51.3242" x="496.6133" y="928.1016"/><text fill="#000000" font-family="sans-serif" font-size="14" lengthAdjust="spacing" textLength="37.3242" x="503.6133" y="949.6348">DWIN</text></g><g class="participant participant-head" data-participant="Serial_Prompt"><rect fill="#E2E2F0" height="31.6094" rx="2.5" ry="2.5" style="stroke:#181818;stroke-width:0.5;" width="102.7031" x="557.9375" y="5"/><text fill="#000000" font-family="sans-serif" font-size="14" lengthAdjust="spacing" textLength="88.7031" x="564.9375" y="26.5332">Serial_Prompt</text></g><g class="participant participant-tail" data-participant="Serial_Prompt"><rect fill="#E2E2F0" height="31.6094" rx="2.5" ry="2.5" style="stroke:#181818;stroke-width:0.5;" width="102.7031" x="557.9375" y="928.1016"/><text fill="#000000" font-family="sans-serif" font-size="14" lengthAdjust="spacing" textLength="88.7031" x="564.9375" y="949.6348">Serial_Prompt</text></g><g class="participant participant-head" data-participant="WIFI"><rect fill="#E2E2F0" height="31.6094" rx="2.5" ry="2.5" style="stroke:#181818;stroke-width:0.5;" width="43.5449" x="670.6406" y="5"/><text fill="#000000" font-family="sans-serif" font-size="14" lengthAdjust="spacing" textLength="29.5449" x="677.6406" y="26.5332">WIFI</text></g><g class="participant participant-tail" data-participant="WIFI"><rect fill="#E2E2F0" height="31.6094" rx="2.5" ry="2.5" style="stroke:#181818;stroke-width:0.5;" width="43.5449" x="670.6406" y="928.1016"/><text fill="#000000" font-family="sans-serif" font-size="14" lengthAdjust="spacing" textLength="29.5449" x="677.6406" y="949.6348">WIFI</text></g><g class="participant participant-head" data-participant="Device_config"><rect fill="#E2E2F0" height="31.6094" rx="2.5" ry="2.5" style="stroke:#181818;stroke-width:0.5;" width="101.9375" x="845.356" y="5"/><text fill="#000000" font-family="sans-serif" font-size="14" lengthAdjust="spacing" textLength="87.9375" x="852.356" y="26.5332">Device_config</text></g><g class="participant participant-tail" data-participant="Device_config"><rect fill="#E2E2F0" height="31.6094" rx="2.5" ry="2.5" style="stroke:#181818;stroke-width:0.5;" width="101.9375" x="845.356" y="928.1016"/><text fill="#000000" font-family="sans-serif" font-size="14" lengthAdjust="spacing" textLength="87.9375" x="852.356" y="949.6348">Device_config</text></g><g class="participant participant-head" data-participant="Printer_base"><rect fill="#E2E2F0" height="31.6094" rx="2.5" ry="2.5" style="stroke:#181818;stroke-width:0.5;" width="93.3789" x="1011.6523" y="5"/><text fill="#000000" font-family="sans-serif" font-size="14" lengthAdjust="spacing" textLength="79.3789" x="1018.6523" y="26.5332">Printer_base</text></g><g class="participant participant-tail" data-participant="Printer_base"><rect fill="#E2E2F0" height="31.6094" rx="2.5" ry="2.5" style="stroke:#181818;stroke-width:0.5;" width="93.3789" x="1011.6523" y="928.1016"/><text fill="#000000" font-family="sans-serif" font-size="14" lengthAdjust="spacing" textLength="79.3789" x="1018.6523" y="949.6348">Printer_base</text></g><g class="participant participant-head" data-participant="Printers"><rect fill="#E2E2F0" height="31.6094" rx="2.5" ry="2.5" style="stroke:#181818;stroke-width:0.5;" width="62.2344" x="1192.1172" y="5"/><text fill="#000000" font-family="sans-serif" font-size="14" lengthAdjust="spacing" textLength="48.2344" x="1199.1172" y="26.5332">Printers</text></g><g class="participant participant-tail" data-participant="Printers"><rect fill="#E2E2F0" height="31.6094" rx="2.5" ry="2.5" style="stroke:#181818;stroke-width:0.5;" width="62.2344" x="1192.1172" y="928.1016"/><text fill="#000000" font-family="sans-serif" font-size="14" lengthAdjust="spacing" textLength="48.2344" x="1199.1172" y="949.6348">Printers</text></g><g class="participant participant-head" data-participant="Fetch_Task"><rect fill="#E2E2F0" height="31.6094" rx="2.5" ry="2.5" style="stroke:#181818;stroke-width:0.5;" width="87.1377" x="1264.3516" y="5"/><text fill="#000000" font-family="sans-serif" font-size="14" lengthAdjust="spacing" textLength="73.1377" x="1271.3516" y="26.5332">Fetch_Task</text></g><g class="participant participant-tail" data-participant="Fetch_Task"><rect fill="#E2E2F0" height="31.6094" rx="2.5" ry="2.5" style="stroke:#181818;stroke-width:0.5;" width="87.1377" x="1264.3516" y="928.1016"/><text fill="#000000" font-family="sans-serif" font-size="14" lengthAdjust="spacing" textLength="73.1377" x="1271.3516" y="949.6348">Fetch_Task</text></g><g class="participant participant-head" data-participant="FETCH_TASK"><rect fill="#E2E2F0" height="31.6094" rx="2.5" ry="2.5" style="stroke:#181818;stroke-width:0.5;" width="105.0137" x="1361.4893" y="5"/><text fill="#000000" font-family="sans-serif" font-size="14" lengthAdjust="spacing" textLength="91.0137" x="1368.4893" y="26.5332">FETCH_TASK</text></g><g class="participant participant-tail" data-participant="FETCH_TASK"><rect fill="#E2E2F0" height="31.6094" rx="2.5" ry="2.5" style="stroke:#181818;stroke-width:0.5;" width="105.0137" x="1361.4893" y="928.1016"/><text fill="#000000" font-family="sans-serif" font-size="14" lengthAdjust="spacing" textLength="91.0137" x="1368.4893" y="949.6348">FETCH_TASK</text></g><g class="message" data-participant-1="Main_APP" data-participant-2="Display"><polygon fill="#181818" points="311.4165,65.9609,321.4165,69.9609,311.4165,73.9609,315.4165,69.9609" style="stroke:#181818;stroke-width:1;"/><line style="stroke:#181818;stroke-width:1;" x1="45.0723" x2="317.4165" y1="69.9609" y2="69.9609"/><text fill="#000000" font-family="sans-serif" font-size="13" lengthAdjust="spacing" textLength="85.979" x="52.0723" y="65.1045">Display inialize</text></g><g class="message" data-participant-1="Display" data-participant-2="DWIN"><polygon fill="#181818" points="510.2754,96.3125,520.2754,100.3125,510.2754,104.3125,514.2754,100.3125" style="stroke:#181818;stroke-width:1;"/><line style="stroke:#181818;stroke-width:1;" x1="323.4165" x2="516.2754" y1="100.3125" y2="100.3125"/><text fill="#000000" font-family="sans-serif" font-size="13" lengthAdjust="spacing" textLength="127.8989" x="330.4165" y="95.4561">set up uart com config</text></g><g class="message" data-participant-1="Display" data-participant-2="DWIN"><polygon fill="#181818" points="510.2754,126.6641,520.2754,130.6641,510.2754,134.6641,514.2754,130.6641" style="stroke:#181818;stroke-width:1;"/><line style="stroke:#181818;stroke-width:1;" x1="323.4165" x2="516.2754" y1="130.6641" y2="130.6641"/><text fill="#000000" font-family="sans-serif" font-size="13" lengthAdjust="spacing" textLength="174.8589" x="330.4165" y="125.8076">Peform Handsake with display</text></g><g class="message" data-participant-1="DWIN" data-participant-2="Display"><polygon fill="#181818" points="334.4165,157.0156,324.4165,161.0156,334.4165,165.0156,330.4165,161.0156" style="stroke:#181818;stroke-width:1;"/><line style="stroke:#181818;stroke-width:1;stroke-dasharray:2,2;" x1="328.4165" x2="521.2754" y1="161.0156" y2="161.0156"/><text fill="#000000" font-family="sans-serif" font-size="13" lengthAdjust="spacing" textLength="148.1289" x="340.4165" y="156.1592">Sucess/Failure Response</text></g><g class="message" data-participant-1="Display" data-participant-2="DWIN"><polygon fill="#181818" points="510.2754,187.3672,520.2754,191.3672,510.2754,195.3672,514.2754,191.3672" style="stroke:#181818;stroke-width:1;"/><line style="stroke:#181818;stroke-width:1;" x1="323.4165" x2="516.2754" y1="191.3672" y2="191.3672"/><text fill="#000000" font-family="sans-serif" font-size="13" lengthAdjust="spacing" textLength="117.0571" x="330.4165" y="186.5107">Set screen ROtation</text></g><g class="message" data-participant-1="Display" data-participant-2="DWIN"><polygon fill="#181818" points="510.2754,217.7188,520.2754,221.7188,510.2754,225.7188,514.2754,221.7188" style="stroke:#181818;stroke-width:1;"/><line style="stroke:#181818;stroke-width:1;" x1="323.4165" x2="516.2754" y1="221.7188" y2="221.7188"/><text fill="#000000" font-family="sans-serif" font-size="13" lengthAdjust="spacing" textLength="122.8525" x="330.4165" y="216.8623">Update display buffer</text></g><g class="message" data-participant-1="Display" data-participant-2="DWIN"><polygon fill="#181818" points="510.2754,248.0703,520.2754,252.0703,510.2754,256.0703,514.2754,252.0703" style="stroke:#181818;stroke-width:1;"/><line style="stroke:#181818;stroke-width:1;" x1="323.4165" x2="516.2754" y1="252.0703" y2="252.0703"/><text fill="#000000" font-family="sans-serif" font-size="13" lengthAdjust="spacing" textLength="130.8062" x="330.4165" y="247.2139">Render loading screen</text></g><g class="message" data-participant-1="Display" data-participant-2="DWIN"><polygon fill="#181818" points="510.2754,278.4219,520.2754,282.4219,510.2754,286.4219,514.2754,282.4219" style="stroke:#181818;stroke-width:1;"/><line style="stroke:#181818;stroke-width:1;" x1="323.4165" x2="516.2754" y1="282.4219" y2="282.4219"/><text fill="#000000" font-family="sans-serif" font-size="13" lengthAdjust="spacing" textLength="109.0972" x="330.4165" y="277.5654">Draw Blank screen</text></g><g class="message" data-participant-1="Main_APP" data-participant-2="Serial_Prompt"><polygon fill="#181818" points="597.2891,308.7734,607.2891,312.7734,597.2891,316.7734,601.2891,312.7734" style="stroke:#181818;stroke-width:1;"/><line style="stroke:#181818;stroke-width:1;" x1="45.0723" x2="603.2891" y1="312.7734" y2="312.7734"/><text fill="#000000" font-family="sans-serif" font-size="13" lengthAdjust="spacing" textLength="190.0488" x="52.0723" y="307.917">Intialize commands and handlers</text></g><g class="message" data-participant-1="Main_APP" data-participant-2="WIFI"><polygon fill="#181818" points="680.4131,339.125,690.4131,343.125,680.4131,347.125,684.4131,343.125" style="stroke:#181818;stroke-width:1;"/><line style="stroke:#181818;stroke-width:1;" x1="45.0723" x2="686.4131" y1="343.125" y2="343.125"/><text fill="#000000" font-family="sans-serif" font-size="13" lengthAdjust="spacing" textLength="83.8271" x="52.0723" y="338.2686">Connect to AP</text></g><g class="message" data-participant-1="WIFI" data-participant-2="Device_config"><polygon fill="#181818" points="884.3247,369.4766,894.3247,373.4766,884.3247,377.4766,888.3247,373.4766" style="stroke:#181818;stroke-width:1;"/><line style="stroke:#181818;stroke-width:1;" x1="692.4131" x2="890.3247" y1="373.4766" y2="373.4766"/><text fill="#000000" font-family="sans-serif" font-size="13" lengthAdjust="spacing" textLength="179.9116" x="699.4131" y="368.6201">Check for saved ssid/password</text></g><g class="message" data-participant-1="Device_config" data-participant-2="WIFI"><polygon fill="#181818" points="703.4131,399.8281,693.4131,403.8281,703.4131,407.8281,699.4131,403.8281" style="stroke:#181818;stroke-width:1;"/><line style="stroke:#181818;stroke-width:1;stroke-dasharray:2,2;" x1="697.4131" x2="895.3247" y1="403.8281" y2="403.8281"/><text fill="#000000" font-family="sans-serif" font-size="13" lengthAdjust="spacing" textLength="63.6035" x="709.4131" y="398.9717">saved data</text></g><g class="message" data-participant-1="WIFI" data-participant-2="Main_APP"><polygon fill="#181818" points="56.0723,430.1797,46.0723,434.1797,56.0723,438.1797,52.0723,434.1797" style="stroke:#181818;stroke-width:1;"/><line style="stroke:#181818;stroke-width:1;stroke-dasharray:2,2;" x1="50.0723" x2="691.4131" y1="434.1797" y2="434.1797"/><text fill="#000000" font-family="sans-serif" font-size="13" lengthAdjust="spacing" textLength="158.2598" x="62.0723" y="429.3232">if no config found returns -1</text></g><g class="message" data-participant-1="Main_APP" data-participant-2="Display"><polygon fill="#181818" points="311.4165,460.5313,321.4165,464.5313,311.4165,468.5313,315.4165,464.5313" style="stroke:#181818;stroke-width:1;"/><line style="stroke:#181818;stroke-width:1;" x1="45.0723" x2="317.4165" y1="464.5313" y2="464.5313"/><text fill="#000000" font-family="sans-serif" font-size="13" lengthAdjust="spacing" textLength="131.479" x="52.0723" y="459.6748">Show Wifi error screen</text></g><g class="message" data-participant-1="Display" data-participant-2="DWIN"><polygon fill="#181818" points="510.2754,490.8828,520.2754,494.8828,510.2754,498.8828,514.2754,494.8828" style="stroke:#181818;stroke-width:1;"/><line style="stroke:#181818;stroke-width:1;" x1="323.4165" x2="516.2754" y1="494.8828" y2="494.8828"/><text fill="#000000" font-family="sans-serif" font-size="13" lengthAdjust="spacing" textLength="137.998" x="330.4165" y="490.0264">Render ERROR Screen</text></g><g class="message" data-participant-1="Main_APP" data-participant-2="Printer_base"><polygon fill="#181818" points="1046.3418,521.2344,1056.3418,525.2344,1046.3418,529.2344,1050.3418,525.2344" style="stroke:#181818;stroke-width:1;"/><line style="stroke:#181818;stroke-width:1;" x1="45.0723" x2="1052.3418" y1="525.2344" y2="525.2344"/><text fill="#000000" font-family="sans-serif" font-size="13" lengthAdjust="spacing" textLength="59.2427" x="52.0723" y="520.3779">Init Printer</text></g><g class="message" data-participant-1="Printer_base" data-participant-2="Device_config"><polygon fill="#181818" points="907.3247,551.5859,897.3247,555.5859,907.3247,559.5859,903.3247,555.5859" style="stroke:#181818;stroke-width:1;"/><line style="stroke:#181818;stroke-width:1;" x1="901.3247" x2="1057.3418" y1="555.5859" y2="555.5859"/><text fill="#000000" font-family="sans-serif" font-size="13" lengthAdjust="spacing" textLength="96.1162" x="913.3247" y="550.7295">get saved ip/port</text></g><g class="message" data-participant-1="Device_config" data-participant-2="Printer_base"><polygon fill="#181818" points="1046.3418,581.9375,1056.3418,585.9375,1046.3418,589.9375,1050.3418,585.9375" style="stroke:#181818;stroke-width:1;"/><line style="stroke:#181818;stroke-width:1;stroke-dasharray:2,2;" x1="896.3247" x2="1052.3418" y1="585.9375" y2="585.9375"/><text fill="#000000" font-family="sans-serif" font-size="13" lengthAdjust="spacing" textLength="138.0171" x="903.3247" y="581.0811">if present:true else false</text></g><g class="message" data-participant-1="Printer_base" data-participant-2="Printers"><polygon fill="#181818" points="1211.2344,612.2891,1221.2344,616.2891,1211.2344,620.2891,1215.2344,616.2891" style="stroke:#181818;stroke-width:1;"/><line style="stroke:#181818;stroke-width:1;" x1="1058.3418" x2="1217.2344" y1="616.2891" y2="616.2891"/><text fill="#000000" font-family="sans-serif" font-size="13" lengthAdjust="spacing" textLength="140.8926" x="1065.3418" y="611.4326">Check for printer ops init</text></g><g class="message" data-participant-1="Printers" data-participant-2="Printer_base"><polygon fill="#181818" points="1069.3418,642.6406,1059.3418,646.6406,1069.3418,650.6406,1065.3418,646.6406" style="stroke:#181818;stroke-width:1;"/><line style="stroke:#181818;stroke-width:1;stroke-dasharray:2,2;" x1="1063.3418" x2="1222.2344" y1="646.6406" y2="646.6406"/><text fill="#000000" font-family="sans-serif" font-size="13" lengthAdjust="spacing" textLength="53.4727" x="1075.3418" y="641.7842">true/false</text></g><g class="message" data-participant-1="Printer_base" data-participant-2="Printer_base"><line style="stroke:#181818;stroke-width:1;stroke-dasharray:2,2;" x1="1058.3418" x2="1100.3418" y1="676.9922" y2="676.9922"/><line style="stroke:#181818;stroke-width:1;stroke-dasharray:2,2;" x1="1100.3418" x2="1100.3418" y1="676.9922" y2="689.9922"/><line style="stroke:#181818;stroke-width:1;stroke-dasharray:2,2;" x1="1059.3418" x2="1100.3418" y1="689.9922" y2="689.9922"/><polygon fill="#181818" points="1069.3418,685.9922,1059.3418,689.9922,1069.3418,693.9922,1065.3418,689.9922" style="stroke:#181818;stroke-width:1;"/><text fill="#000000" font-family="sans-serif" font-size="13" lengthAdjust="spacing" textLength="135.8462" x="1065.3418" y="672.1357">set intilized to true/false</text></g><g class="message" data-participant-1="Printer_base" data-participant-2="Main_APP"><polygon fill="#181818" points="56.0723,716.3438,46.0723,720.3438,56.0723,724.3438,52.0723,720.3438" style="stroke:#181818;stroke-width:1;"/><line style="stroke:#181818;stroke-width:1;stroke-dasharray:2,2;" x1="50.0723" x2="1057.3418" y1="720.3438" y2="720.3438"/><text fill="#000000" font-family="sans-serif" font-size="13" lengthAdjust="spacing" textLength="111.998" x="62.0723" y="715.4873">init status true/false</text></g><g class="message" data-participant-1="Main_APP" data-participant-2="Display"><polygon fill="#181818" points="311.4165,746.6953,321.4165,750.6953,311.4165,754.6953,315.4165,750.6953" style="stroke:#181818;stroke-width:1;"/><line style="stroke:#181818;stroke-width:1;" x1="45.0723" x2="317.4165" y1="750.6953" y2="750.6953"/><text fill="#000000" font-family="sans-serif" font-size="13" lengthAdjust="spacing" textLength="254.3442" x="52.0723" y="745.8389">(false) render Printer Not Connected Screen</text></g><g class="message" data-participant-1="Main_APP" data-participant-2="Main_APP"><line style="stroke:#181818;stroke-width:1;" x1="45.0723" x2="87.0723" y1="781.0469" y2="781.0469"/><line style="stroke:#181818;stroke-width:1;" x1="87.0723" x2="87.0723" y1="781.0469" y2="794.0469"/><line style="stroke:#181818;stroke-width:1;" x1="46.0723" x2="87.0723" y1="794.0469" y2="794.0469"/><polygon fill="#181818" points="56.0723,790.0469,46.0723,794.0469,56.0723,798.0469,52.0723,794.0469" style="stroke:#181818;stroke-width:1;"/><text fill="#000000" font-family="sans-serif" font-size="13" lengthAdjust="spacing" textLength="207.3652" x="52.0723" y="776.1904">create binary sem for wifi notificaton</text></g><g class="message" data-participant-1="Main_APP" data-participant-2="Main_APP"><line style="stroke:#181818;stroke-width:1;" x1="45.0723" x2="87.0723" y1="824.3984" y2="824.3984"/><line style="stroke:#181818;stroke-width:1;" x1="87.0723" x2="87.0723" y1="824.3984" y2="837.3984"/><line style="stroke:#181818;stroke-width:1;" x1="46.0723" x2="87.0723" y1="837.3984" y2="837.3984"/><polygon fill="#181818" points="56.0723,833.3984,46.0723,837.3984,56.0723,841.3984,52.0723,837.3984" style="stroke:#181818;stroke-width:1;"/><text fill="#000000" font-family="sans-serif" font-size="13" lengthAdjust="spacing" textLength="101.8862" x="52.0723" y="819.542">Create fetch_task</text></g><g class="message" data-participant-1="Main_APP" data-participant-2="Main_APP"><line style="stroke:#181818;stroke-width:1;" x1="45.0723" x2="87.0723" y1="867.75" y2="867.75"/><line style="stroke:#181818;stroke-width:1;" x1="87.0723" x2="87.0723" y1="867.75" y2="880.75"/><line style="stroke:#181818;stroke-width:1;" x1="46.0723" x2="87.0723" y1="880.75" y2="880.75"/><polygon fill="#181818" points="56.0723,876.75,46.0723,880.75,56.0723,884.75,52.0723,880.75" style="stroke:#181818;stroke-width:1;"/><text fill="#000000" font-family="sans-serif" font-size="13" lengthAdjust="spacing" textLength="125.0044" x="52.0723" y="862.8936">Intilize cmd fetch loop</text></g><g class="message" data-participant-1="Fetch_Task" data-participant-2="FETCH_TASK"><polygon fill="#181818" points="1401.9961,907.1016,1411.9961,911.1016,1401.9961,915.1016,1405.9961,911.1016" style="stroke:#181818;stroke-width:1;"/><line style="stroke:#181818;stroke-width:1;" x1="1307.9204" x2="1407.9961" y1="911.1016" y2="911.1016"/><text fill="#000000" font-family="sans-serif" font-size="13" lengthAdjust="spacing" textLength="64.2891" x="1314.9204" y="906.2451">wait for wifi</text></g><!--SRC=[VLFBRkCm3BpxAtZSFGJ1NdrO84qRD5YqDPmiSZGKcqw4s98WqZNQhr_AZpmGPm-MRN5cI0sfDwLDjaWIcFs6PqskKbyGdx-qqQhItnYD6m6rMx_7GCZGE6YKPyXjBOyfzU4Ubs1fVGsloXIaJWYjvYCK0oeA69XTKiUmQN8acg-KhXgFa28vQmZXNdaZ5L3k4Gsa7wnOMpE1-kiAnNZEk6_A4lq4BaLJIA2ogj3cC0hVuvwzQk6fKkOqOABexSh23NfnB4kyhHt7i3RS6nWygeC780iSPQdG4znmT-lLEeQbDGPp1hQmIAAmroN7JvrZrhiie2Fc9n1dWTGd5a2aYxbJHAtrHNG3xkpjfNki-A46NOcC1SIWIp1swAD8DrAdHswy8PZzkYdqqgoZRM6dImteVIYcT-IHkIzf-f72PiAsn6l3wBEz8WokQHwteklGX1E7C0NTkRIRE-jvulItwd9Evv7GSCo-GS1AX4ibwrskuP-k3NVz7bX7uNhmIAA9L45_FYLzXmpNIVvrc9KYzFv_rAkU1QT8Xh-XQyPaitvqiP_IrAuPWogyMnvdJZ9FDUUIJeBXCksrKVvBQguxHzem0CQol7B5rZmWBtjoYPmVCrPqUfHbFVW0ULtqSBcMraNHggDkXHe8gvVjyZNRBZP_OcYL-72k9Ve7]--></g></svg>