<svg xmlns="http://www.w3.org/2000/svg" xmlns:xlink="http://www.w3.org/1999/xlink" contentStyleType="text/css" data-diagram-type="SEQUENCE" height="930px" preserveAspectRatio="none" style="width:1605px;height:930px;background:#1B1B1B;" version="1.1" viewBox="0 0 1605 930" width="1605px" zoomAndPan="magnify"><defs/><g><rect fill="#1B1B1B" height="930" style="stroke:none;stroke-width:1;" width="1605" x="0" y="0"/><g><title>Main_APP</title><rect fill="#000000" fill-opacity="0.00000" height="858.5859" width="8" x="41.4414" y="36.2969"/><line style="stroke:#E7E7E7;stroke-width:0.5;stroke-dasharray:5,5;" x1="45" x2="45" y1="36.2969" y2="894.8828"/></g><g><title>Display</title><rect fill="#000000" fill-opacity="0.00000" height="858.5859" width="8" x="351.5811" y="36.2969"/><line style="stroke:#E7E7E7;stroke-width:0.5;stroke-dasharray:5,5;" x1="354.7788" x2="354.7788" y1="36.2969" y2="894.8828"/></g><g><title>DWIN</title><rect fill="#000000" fill-opacity="0.00000" height="858.5859" width="8" x="572.5933" y="36.2969"/><line style="stroke:#E7E7E7;stroke-width:0.5;stroke-dasharray:5,5;" x1="575.981" x2="575.981" y1="36.2969" y2="894.8828"/></g><g><title>Serial_Prompt</title><rect fill="#000000" fill-opacity="0.00000" height="858.5859" width="8" x="664.9014" y="36.2969"/><line style="stroke:#E7E7E7;stroke-width:0.5;stroke-dasharray:5,5;" x1="668.2056" x2="668.2056" y1="36.2969" y2="894.8828"/></g><g><title>WIFI</title><rect fill="#000000" fill-opacity="0.00000" height="858.5859" width="8" x="752.6738" y="36.2969"/><line style="stroke:#E7E7E7;stroke-width:0.5;stroke-dasharray:5,5;" x1="756.5972" x2="756.5972" y1="36.2969" y2="894.8828"/></g><g><title>Device_config</title><rect fill="#000000" fill-opacity="0.00000" height="858.5859" width="8" x="977.355" y="36.2969"/><line style="stroke:#E7E7E7;stroke-width:0.5;stroke-dasharray:5,5;" x1="980.4951" x2="980.4951" y1="36.2969" y2="894.8828"/></g><g><title>Printer_base</title><rect fill="#000000" fill-opacity="0.00000" height="858.5859" width="8" x="1160.0083" y="36.2969"/><line style="stroke:#E7E7E7;stroke-width:0.5;stroke-dasharray:5,5;" x1="1163.4121" x2="1163.4121" y1="36.2969" y2="894.8828"/></g><g><title>Printers</title><rect fill="#000000" fill-opacity="0.00000" height="858.5859" width="8" x="1345.8291" y="36.2969"/><line style="stroke:#E7E7E7;stroke-width:0.5;stroke-dasharray:5,5;" x1="1349.7725" x2="1349.7725" y1="36.2969" y2="894.8828"/></g><g><title>Fetch_Task</title><rect fill="#000000" fill-opacity="0.00000" height="858.5859" width="8" x="1436.0146" y="36.2969"/><line style="stroke:#E7E7E7;stroke-width:0.5;stroke-dasharray:5,5;" x1="1439.8857" x2="1439.8857" y1="36.2969" y2="894.8828"/></g><g><title>FETCH_TASK</title><rect fill="#000000" fill-opacity="0.00000" height="858.5859" width="8" x="1543.6182" y="36.2969"/><line style="stroke:#E7E7E7;stroke-width:0.5;stroke-dasharray:5,5;" x1="1547.1436" x2="1547.1436" y1="36.2969" y2="894.8828"/></g><g class="participant participant-head" data-participant="Main_APP"><rect fill="#222222" height="30.2969" rx="2.5" ry="2.5" style="stroke:#E7E7E7;stroke-width:0.5;" width="80.8828" x="5" y="5"/><text fill="#FFFFFF" font-family="sans-serif" font-size="14" lengthAdjust="spacing" textLength="66.8828" x="12" y="24.9951">Main_APP</text></g><g class="participant participant-tail" data-participant="Main_APP"><rect fill="#222222" height="30.2969" rx="2.5" ry="2.5" style="stroke:#E7E7E7;stroke-width:0.5;" width="80.8828" x="5" y="893.8828"/><text fill="#FFFFFF" font-family="sans-serif" font-size="14" lengthAdjust="spacing" textLength="66.8828" x="12" y="913.8779">Main_APP</text></g><g class="participant participant-head" data-participant="Display"><rect fill="#222222" height="30.2969" rx="2.5" ry="2.5" style="stroke:#E7E7E7;stroke-width:0.5;" width="65.6045" x="322.7788" y="5"/><text fill="#FFFFFF" font-family="sans-serif" font-size="14" lengthAdjust="spacing" textLength="51.6045" x="329.7788" y="24.9951">Display</text></g><g class="participant participant-tail" data-participant="Display"><rect fill="#222222" height="30.2969" rx="2.5" ry="2.5" style="stroke:#E7E7E7;stroke-width:0.5;" width="65.6045" x="322.7788" y="893.8828"/><text fill="#FFFFFF" font-family="sans-serif" font-size="14" lengthAdjust="spacing" textLength="51.6045" x="329.7788" y="913.8779">Display</text></g><g class="participant participant-head" data-participant="DWIN"><rect fill="#222222" height="30.2969" rx="2.5" ry="2.5" style="stroke:#E7E7E7;stroke-width:0.5;" width="53.2246" x="549.981" y="5"/><text fill="#FFFFFF" font-family="sans-serif" font-size="14" lengthAdjust="spacing" textLength="39.2246" x="556.981" y="24.9951">DWIN</text></g><g class="participant participant-tail" data-participant="DWIN"><rect fill="#222222" height="30.2969" rx="2.5" ry="2.5" style="stroke:#E7E7E7;stroke-width:0.5;" width="53.2246" x="549.981" y="893.8828"/><text fill="#FFFFFF" font-family="sans-serif" font-size="14" lengthAdjust="spacing" textLength="39.2246" x="556.981" y="913.8779">DWIN</text></g><g class="participant participant-head" data-participant="Serial_Prompt"><rect fill="#222222" height="30.2969" rx="2.5" ry="2.5" style="stroke:#E7E7E7;stroke-width:0.5;" width="111.3916" x="613.2056" y="5"/><text fill="#FFFFFF" font-family="sans-serif" font-size="14" lengthAdjust="spacing" textLength="97.3916" x="620.2056" y="24.9951">Serial_Prompt</text></g><g class="participant participant-tail" data-participant="Serial_Prompt"><rect fill="#222222" height="30.2969" rx="2.5" ry="2.5" style="stroke:#E7E7E7;stroke-width:0.5;" width="111.3916" x="613.2056" y="893.8828"/><text fill="#FFFFFF" font-family="sans-serif" font-size="14" lengthAdjust="spacing" textLength="97.3916" x="620.2056" y="913.8779">Serial_Prompt</text></g><g class="participant participant-head" data-participant="WIFI"><rect fill="#222222" height="30.2969" rx="2.5" ry="2.5" style="stroke:#E7E7E7;stroke-width:0.5;" width="44.1533" x="734.5972" y="5"/><text fill="#FFFFFF" font-family="sans-serif" font-size="14" lengthAdjust="spacing" textLength="30.1533" x="741.5972" y="24.9951">WIFI</text></g><g class="participant participant-tail" data-participant="WIFI"><rect fill="#222222" height="30.2969" rx="2.5" ry="2.5" style="stroke:#E7E7E7;stroke-width:0.5;" width="44.1533" x="734.5972" y="893.8828"/><text fill="#FFFFFF" font-family="sans-serif" font-size="14" lengthAdjust="spacing" textLength="30.1533" x="741.5972" y="913.8779">WIFI</text></g><g class="participant participant-head" data-participant="Device_config"><rect fill="#222222" height="30.2969" rx="2.5" ry="2.5" style="stroke:#E7E7E7;stroke-width:0.5;" width="111.7197" x="925.4951" y="5"/><text fill="#FFFFFF" font-family="sans-serif" font-size="14" lengthAdjust="spacing" textLength="97.7197" x="932.4951" y="24.9951">Device_config</text></g><g class="participant participant-tail" data-participant="Device_config"><rect fill="#222222" height="30.2969" rx="2.5" ry="2.5" style="stroke:#E7E7E7;stroke-width:0.5;" width="111.7197" x="925.4951" y="893.8828"/><text fill="#FFFFFF" font-family="sans-serif" font-size="14" lengthAdjust="spacing" textLength="97.7197" x="932.4951" y="913.8779">Device_config</text></g><g class="participant participant-head" data-participant="Printer_base"><rect fill="#222222" height="30.2969" rx="2.5" ry="2.5" style="stroke:#E7E7E7;stroke-width:0.5;" width="101.1924" x="1113.4121" y="5"/><text fill="#FFFFFF" font-family="sans-serif" font-size="14" lengthAdjust="spacing" textLength="87.1924" x="1120.4121" y="24.9951">Printer_base</text></g><g class="participant participant-tail" data-participant="Printer_base"><rect fill="#222222" height="30.2969" rx="2.5" ry="2.5" style="stroke:#E7E7E7;stroke-width:0.5;" width="101.1924" x="1113.4121" y="893.8828"/><text fill="#FFFFFF" font-family="sans-serif" font-size="14" lengthAdjust="spacing" textLength="87.1924" x="1120.4121" y="913.8779">Printer_base</text></g><g class="participant participant-head" data-participant="Printers"><rect fill="#222222" height="30.2969" rx="2.5" ry="2.5" style="stroke:#E7E7E7;stroke-width:0.5;" width="68.1133" x="1315.7725" y="5"/><text fill="#FFFFFF" font-family="sans-serif" font-size="14" lengthAdjust="spacing" textLength="54.1133" x="1322.7725" y="24.9951">Printers</text></g><g class="participant participant-tail" data-participant="Printers"><rect fill="#222222" height="30.2969" rx="2.5" ry="2.5" style="stroke:#E7E7E7;stroke-width:0.5;" width="68.1133" x="1315.7725" y="893.8828"/><text fill="#FFFFFF" font-family="sans-serif" font-size="14" lengthAdjust="spacing" textLength="54.1133" x="1322.7725" y="913.8779">Printers</text></g><g class="participant participant-head" data-participant="Fetch_Task"><rect fill="#222222" height="30.2969" rx="2.5" ry="2.5" style="stroke:#E7E7E7;stroke-width:0.5;" width="92.2578" x="1393.8857" y="5"/><text fill="#FFFFFF" font-family="sans-serif" font-size="14" lengthAdjust="spacing" textLength="78.2578" x="1400.8857" y="24.9951">Fetch_Task</text></g><g class="participant participant-tail" data-participant="Fetch_Task"><rect fill="#222222" height="30.2969" rx="2.5" ry="2.5" style="stroke:#E7E7E7;stroke-width:0.5;" width="92.2578" x="1393.8857" y="893.8828"/><text fill="#FFFFFF" font-family="sans-serif" font-size="14" lengthAdjust="spacing" textLength="78.2578" x="1400.8857" y="913.8779">Fetch_Task</text></g><g class="participant participant-head" data-participant="FETCH_TASK"><rect fill="#222222" height="30.2969" rx="2.5" ry="2.5" style="stroke:#E7E7E7;stroke-width:0.5;" width="102.9492" x="1496.1436" y="5"/><text fill="#FFFFFF" font-family="sans-serif" font-size="14" lengthAdjust="spacing" textLength="88.9492" x="1503.1436" y="24.9951">FETCH_TASK</text></g><g class="participant participant-tail" data-participant="FETCH_TASK"><rect fill="#222222" height="30.2969" rx="2.5" ry="2.5" style="stroke:#E7E7E7;stroke-width:0.5;" width="102.9492" x="1496.1436" y="893.8828"/><text fill="#FFFFFF" font-family="sans-serif" font-size="14" lengthAdjust="spacing" textLength="88.9492" x="1503.1436" y="913.8779">FETCH_TASK</text></g><g class="message" data-participant-1="Main_APP" data-participant-2="Display"><polygon fill="#E7E7E7" points="343.5811,63.4297,353.5811,67.4297,343.5811,71.4297,347.5811,67.4297" style="stroke:#E7E7E7;stroke-width:1;"/><line style="stroke:#E7E7E7;stroke-width:1;" x1="45.4414" x2="349.5811" y1="67.4297" y2="67.4297"/><text fill="#FFFFFF" font-family="sans-serif" font-size="13" lengthAdjust="spacing" textLength="97.5254" x="52.4414" y="62.3638">Display inialize</text></g><g class="message" data-participant-1="Display" data-participant-2="DWIN"><polygon fill="#E7E7E7" points="564.5933,92.5625,574.5933,96.5625,564.5933,100.5625,568.5933,96.5625" style="stroke:#E7E7E7;stroke-width:1;"/><line style="stroke:#E7E7E7;stroke-width:1;" x1="355.5811" x2="570.5933" y1="96.5625" y2="96.5625"/><text fill="#FFFFFF" font-family="sans-serif" font-size="13" lengthAdjust="spacing" textLength="147.0815" x="362.5811" y="91.4966">set up uart com config</text></g><g class="message" data-participant-1="Display" data-participant-2="DWIN"><polygon fill="#E7E7E7" points="564.5933,121.6953,574.5933,125.6953,564.5933,129.6953,568.5933,125.6953" style="stroke:#E7E7E7;stroke-width:1;"/><line style="stroke:#E7E7E7;stroke-width:1;" x1="355.5811" x2="570.5933" y1="125.6953" y2="125.6953"/><text fill="#FFFFFF" font-family="sans-serif" font-size="13" lengthAdjust="spacing" textLength="197.0122" x="362.5811" y="120.6294">Peform Handsake with display</text></g><g class="message" data-participant-1="DWIN" data-participant-2="Display"><polygon fill="#E7E7E7" points="366.5811,150.8281,356.5811,154.8281,366.5811,158.8281,362.5811,154.8281" style="stroke:#E7E7E7;stroke-width:1;"/><line style="stroke:#E7E7E7;stroke-width:1;stroke-dasharray:2,2;" x1="360.5811" x2="575.5933" y1="154.8281" y2="154.8281"/><text fill="#FFFFFF" font-family="sans-serif" font-size="13" lengthAdjust="spacing" textLength="160.9639" x="372.5811" y="149.7622">Sucess/Failure Response</text></g><g class="message" data-participant-1="Display" data-participant-2="DWIN"><polygon fill="#E7E7E7" points="564.5933,179.9609,574.5933,183.9609,564.5933,187.9609,568.5933,183.9609" style="stroke:#E7E7E7;stroke-width:1;"/><line style="stroke:#E7E7E7;stroke-width:1;" x1="355.5811" x2="570.5933" y1="183.9609" y2="183.9609"/><text fill="#FFFFFF" font-family="sans-serif" font-size="13" lengthAdjust="spacing" textLength="130.3428" x="362.5811" y="178.895">Set screen ROtation</text></g><g class="message" data-participant-1="Display" data-participant-2="DWIN"><polygon fill="#E7E7E7" points="564.5933,209.0938,574.5933,213.0938,564.5933,217.0938,568.5933,213.0938" style="stroke:#E7E7E7;stroke-width:1;"/><line style="stroke:#E7E7E7;stroke-width:1;" x1="355.5811" x2="570.5933" y1="213.0938" y2="213.0938"/><text fill="#FFFFFF" font-family="sans-serif" font-size="13" lengthAdjust="spacing" textLength="140.4927" x="362.5811" y="208.0278">Update display buffer</text></g><g class="message" data-participant-1="Display" data-participant-2="DWIN"><polygon fill="#E7E7E7" points="564.5933,238.2266,574.5933,242.2266,564.5933,246.2266,568.5933,242.2266" style="stroke:#E7E7E7;stroke-width:1;"/><line style="stroke:#E7E7E7;stroke-width:1;" x1="355.5811" x2="570.5933" y1="242.2266" y2="242.2266"/><text fill="#FFFFFF" font-family="sans-serif" font-size="13" lengthAdjust="spacing" textLength="146.5166" x="362.5811" y="237.1606">Render loading screen</text></g><g class="message" data-participant-1="Display" data-participant-2="DWIN"><polygon fill="#E7E7E7" points="564.5933,267.3594,574.5933,271.3594,564.5933,275.3594,568.5933,271.3594" style="stroke:#E7E7E7;stroke-width:1;"/><line style="stroke:#E7E7E7;stroke-width:1;" x1="355.5811" x2="570.5933" y1="271.3594" y2="271.3594"/><text fill="#FFFFFF" font-family="sans-serif" font-size="13" lengthAdjust="spacing" textLength="121.9829" x="362.5811" y="266.2935">Draw Blank screen</text></g><g class="message" data-participant-1="Main_APP" data-participant-2="Serial_Prompt"><polygon fill="#E7E7E7" points="656.9014,296.4922,666.9014,300.4922,656.9014,304.4922,660.9014,300.4922" style="stroke:#E7E7E7;stroke-width:1;"/><line style="stroke:#E7E7E7;stroke-width:1;" x1="45.4414" x2="662.9014" y1="300.4922" y2="300.4922"/><text fill="#FFFFFF" font-family="sans-serif" font-size="13" lengthAdjust="spacing" textLength="215.7314" x="52.4414" y="295.4263">Intialize commands and handlers</text></g><g class="message" data-participant-1="Main_APP" data-participant-2="WIFI"><polygon fill="#E7E7E7" points="744.6738,325.625,754.6738,329.625,744.6738,333.625,748.6738,329.625" style="stroke:#E7E7E7;stroke-width:1;"/><line style="stroke:#E7E7E7;stroke-width:1;" x1="45.4414" x2="750.6738" y1="329.625" y2="329.625"/><text fill="#FFFFFF" font-family="sans-serif" font-size="13" lengthAdjust="spacing" textLength="91.7998" x="52.4414" y="324.5591">Connect to AP</text></g><g class="message" data-participant-1="WIFI" data-participant-2="Device_config"><polygon fill="#E7E7E7" points="969.355,354.7578,979.355,358.7578,969.355,362.7578,973.355,358.7578" style="stroke:#E7E7E7;stroke-width:1;"/><line style="stroke:#E7E7E7;stroke-width:1;" x1="756.6738" x2="975.355" y1="358.7578" y2="358.7578"/><text fill="#FFFFFF" font-family="sans-serif" font-size="13" lengthAdjust="spacing" textLength="200.6812" x="763.6738" y="353.6919">Check for saved ssid/password</text></g><g class="message" data-participant-1="Device_config" data-participant-2="WIFI"><polygon fill="#E7E7E7" points="767.6738,383.8906,757.6738,387.8906,767.6738,391.8906,763.6738,387.8906" style="stroke:#E7E7E7;stroke-width:1;"/><line style="stroke:#E7E7E7;stroke-width:1;stroke-dasharray:2,2;" x1="761.6738" x2="980.355" y1="387.8906" y2="387.8906"/><text fill="#FFFFFF" font-family="sans-serif" font-size="13" lengthAdjust="spacing" textLength="72.0967" x="773.6738" y="382.8247">saved data</text></g><g class="message" data-participant-1="WIFI" data-participant-2="Main_APP"><polygon fill="#E7E7E7" points="56.4414,413.0234,46.4414,417.0234,56.4414,421.0234,52.4414,417.0234" style="stroke:#E7E7E7;stroke-width:1;"/><line style="stroke:#E7E7E7;stroke-width:1;stroke-dasharray:2,2;" x1="50.4414" x2="755.6738" y1="417.0234" y2="417.0234"/><text fill="#FFFFFF" font-family="sans-serif" font-size="13" lengthAdjust="spacing" textLength="182.0825" x="62.4414" y="411.9575">if no config found returns -1</text></g><g class="message" data-participant-1="Main_APP" data-participant-2="Display"><polygon fill="#E7E7E7" points="343.5811,442.1563,353.5811,446.1563,343.5811,450.1563,347.5811,446.1563" style="stroke:#E7E7E7;stroke-width:1;"/><line style="stroke:#E7E7E7;stroke-width:1;" x1="45.4414" x2="349.5811" y1="446.1563" y2="446.1563"/><text fill="#FFFFFF" font-family="sans-serif" font-size="13" lengthAdjust="spacing" textLength="147.6147" x="52.4414" y="441.0903">Show Wifi error screen</text></g><g class="message" data-participant-1="Display" data-participant-2="DWIN"><polygon fill="#E7E7E7" points="564.5933,471.2891,574.5933,475.2891,564.5933,479.2891,568.5933,475.2891" style="stroke:#E7E7E7;stroke-width:1;"/><line style="stroke:#E7E7E7;stroke-width:1;" x1="355.5811" x2="570.5933" y1="475.2891" y2="475.2891"/><text fill="#FFFFFF" font-family="sans-serif" font-size="13" lengthAdjust="spacing" textLength="145.6533" x="362.5811" y="470.2231">Render ERROR Screen</text></g><g class="message" data-participant-1="Main_APP" data-participant-2="Printer_base"><polygon fill="#E7E7E7" points="1152.0083,500.4219,1162.0083,504.4219,1152.0083,508.4219,1156.0083,504.4219" style="stroke:#E7E7E7;stroke-width:1;"/><line style="stroke:#E7E7E7;stroke-width:1;" x1="45.4414" x2="1158.0083" y1="504.4219" y2="504.4219"/><text fill="#FFFFFF" font-family="sans-serif" font-size="13" lengthAdjust="spacing" textLength="68.3896" x="52.4414" y="499.356">Init Printer</text></g><g class="message" data-participant-1="Printer_base" data-participant-2="Device_config"><polygon fill="#E7E7E7" points="992.355,529.5547,982.355,533.5547,992.355,537.5547,988.355,533.5547" style="stroke:#E7E7E7;stroke-width:1;"/><line style="stroke:#E7E7E7;stroke-width:1;" x1="986.355" x2="1163.0083" y1="533.5547" y2="533.5547"/><text fill="#FFFFFF" font-family="sans-serif" font-size="13" lengthAdjust="spacing" textLength="111.1855" x="998.355" y="528.4888">get saved ip/port</text></g><g class="message" data-participant-1="Device_config" data-participant-2="Printer_base"><polygon fill="#E7E7E7" points="1152.0083,558.6875,1162.0083,562.6875,1152.0083,566.6875,1156.0083,562.6875" style="stroke:#E7E7E7;stroke-width:1;"/><line style="stroke:#E7E7E7;stroke-width:1;stroke-dasharray:2,2;" x1="981.355" x2="1158.0083" y1="562.6875" y2="562.6875"/><text fill="#FFFFFF" font-family="sans-serif" font-size="13" lengthAdjust="spacing" textLength="158.6533" x="988.355" y="557.6216">if present:true else false</text></g><g class="message" data-participant-1="Printer_base" data-participant-2="Printers"><polygon fill="#E7E7E7" points="1337.8291,587.8203,1347.8291,591.8203,1337.8291,595.8203,1341.8291,591.8203" style="stroke:#E7E7E7;stroke-width:1;"/><line style="stroke:#E7E7E7;stroke-width:1;" x1="1164.0083" x2="1343.8291" y1="591.8203" y2="591.8203"/><text fill="#FFFFFF" font-family="sans-serif" font-size="13" lengthAdjust="spacing" textLength="161.8208" x="1171.0083" y="586.7544">Check for printer ops init</text></g><g class="message" data-participant-1="Printers" data-participant-2="Printer_base"><polygon fill="#E7E7E7" points="1175.0083,616.9531,1165.0083,620.9531,1175.0083,624.9531,1171.0083,620.9531" style="stroke:#E7E7E7;stroke-width:1;"/><line style="stroke:#E7E7E7;stroke-width:1;stroke-dasharray:2,2;" x1="1169.0083" x2="1348.8291" y1="620.9531" y2="620.9531"/><text fill="#FFFFFF" font-family="sans-serif" font-size="13" lengthAdjust="spacing" textLength="61.9849" x="1181.0083" y="615.8872">true/false</text></g><g class="message" data-participant-1="Printer_base" data-participant-2="Printer_base"><line style="stroke:#E7E7E7;stroke-width:1;stroke-dasharray:2,2;" x1="1164.0083" x2="1206.0083" y1="650.0859" y2="650.0859"/><line style="stroke:#E7E7E7;stroke-width:1;stroke-dasharray:2,2;" x1="1206.0083" x2="1206.0083" y1="650.0859" y2="663.0859"/><line style="stroke:#E7E7E7;stroke-width:1;stroke-dasharray:2,2;" x1="1165.0083" x2="1206.0083" y1="663.0859" y2="663.0859"/><polygon fill="#E7E7E7" points="1175.0083,659.0859,1165.0083,663.0859,1175.0083,667.0859,1171.0083,663.0859" style="stroke:#E7E7E7;stroke-width:1;"/><text fill="#FFFFFF" font-family="sans-serif" font-size="13" lengthAdjust="spacing" textLength="158.1582" x="1171.0083" y="645.02">set intilized to true/false</text></g><g class="message" data-participant-1="Printer_base" data-participant-2="Main_APP"><polygon fill="#E7E7E7" points="56.4414,688.2188,46.4414,692.2188,56.4414,696.2188,52.4414,692.2188" style="stroke:#E7E7E7;stroke-width:1;"/><line style="stroke:#E7E7E7;stroke-width:1;stroke-dasharray:2,2;" x1="50.4414" x2="1163.0083" y1="692.2188" y2="692.2188"/><text fill="#FFFFFF" font-family="sans-serif" font-size="13" lengthAdjust="spacing" textLength="130.7554" x="62.4414" y="687.1528">init status true/false</text></g><g class="message" data-participant-1="Main_APP" data-participant-2="Display"><polygon fill="#E7E7E7" points="343.5811,717.3516,353.5811,721.3516,343.5811,725.3516,347.5811,721.3516" style="stroke:#E7E7E7;stroke-width:1;"/><line style="stroke:#E7E7E7;stroke-width:1;" x1="45.4414" x2="349.5811" y1="721.3516" y2="721.3516"/><text fill="#FFFFFF" font-family="sans-serif" font-size="13" lengthAdjust="spacing" textLength="286.1396" x="52.4414" y="716.2856">(false) render Printer Not Connected Screen</text></g><g class="message" data-participant-1="Main_APP" data-participant-2="Main_APP"><line style="stroke:#E7E7E7;stroke-width:1;" x1="45.4414" x2="87.4414" y1="750.4844" y2="750.4844"/><line style="stroke:#E7E7E7;stroke-width:1;" x1="87.4414" x2="87.4414" y1="750.4844" y2="763.4844"/><line style="stroke:#E7E7E7;stroke-width:1;" x1="46.4414" x2="87.4414" y1="763.4844" y2="763.4844"/><polygon fill="#E7E7E7" points="56.4414,759.4844,46.4414,763.4844,56.4414,767.4844,52.4414,763.4844" style="stroke:#E7E7E7;stroke-width:1;"/><text fill="#FFFFFF" font-family="sans-serif" font-size="13" lengthAdjust="spacing" textLength="240.5571" x="52.4414" y="745.4185">create binary sem for wifi notificaton</text></g><g class="message" data-participant-1="Main_APP" data-participant-2="Main_APP"><line style="stroke:#E7E7E7;stroke-width:1;" x1="45.4414" x2="87.4414" y1="792.6172" y2="792.6172"/><line style="stroke:#E7E7E7;stroke-width:1;" x1="87.4414" x2="87.4414" y1="792.6172" y2="805.6172"/><line style="stroke:#E7E7E7;stroke-width:1;" x1="46.4414" x2="87.4414" y1="805.6172" y2="805.6172"/><polygon fill="#E7E7E7" points="56.4414,801.6172,46.4414,805.6172,56.4414,809.6172,52.4414,805.6172" style="stroke:#E7E7E7;stroke-width:1;"/><text fill="#FFFFFF" font-family="sans-serif" font-size="13" lengthAdjust="spacing" textLength="114.5371" x="52.4414" y="787.5513">Create fetch_task</text></g><g class="message" data-participant-1="Main_APP" data-participant-2="Main_APP"><line style="stroke:#E7E7E7;stroke-width:1;" x1="45.4414" x2="87.4414" y1="834.75" y2="834.75"/><line style="stroke:#E7E7E7;stroke-width:1;" x1="87.4414" x2="87.4414" y1="834.75" y2="847.75"/><line style="stroke:#E7E7E7;stroke-width:1;" x1="46.4414" x2="87.4414" y1="847.75" y2="847.75"/><polygon fill="#E7E7E7" points="56.4414,843.75,46.4414,847.75,56.4414,851.75,52.4414,847.75" style="stroke:#E7E7E7;stroke-width:1;"/><text fill="#FFFFFF" font-family="sans-serif" font-size="13" lengthAdjust="spacing" textLength="144.1172" x="52.4414" y="829.6841">Intilize cmd fetch loop</text></g><g class="message" data-participant-1="Fetch_Task" data-participant-2="FETCH_TASK"><polygon fill="#E7E7E7" points="1535.6182,872.8828,1545.6182,876.8828,1535.6182,880.8828,1539.6182,876.8828" style="stroke:#E7E7E7;stroke-width:1;"/><line style="stroke:#E7E7E7;stroke-width:1;" x1="1440.0146" x2="1541.6182" y1="876.8828" y2="876.8828"/><text fill="#FFFFFF" font-family="sans-serif" font-size="13" lengthAdjust="spacing" textLength="75.8799" x="1447.0146" y="871.8169">wait for wifi</text></g><!--SRC=[VLDDRzim3BtxL_2u7O9WLny6P6c31aDRmycGew7OT2B4bWIHhj7z-b7-Q1BOsS6oBRxtI3rIhqgRR9KaiFW9JvfSfJuX_lhIHgjA_yLet0Yem_Oj1aA6na6ZF4DkQtbCgKzJN8AbzJMyA5EGkY2qcizG3AWeO61nJHt3hicHQBbHkceyGehah264gV9EAg3S8nf8trcnjcO6zSSLYl4hux4fI_Gpk1HD8O7AgaARqoWynJrvrSAlIfdBW8cYrniBT-Z5iIpnjdOSmzPmRs3mg0uUW2nmbgL2Jt37FMmtsnZMrXZC6TZ2Aed2NfSSFtIEMU-oWCwONq2S1L8VM02HBfPE4RNM5z4TkBEtb-wnueSQT2Ko5X23Bi7OeOyYtKYT7hdnXc3nuwxGQxFEjeM3BZMWzw6Otf57vZwdwNiAkndR4gyDey-EYZ2ufddSYcv3CqwSmXHqvz9kwQpdcTFVgyivdKT2mp7x1W4h4IwLh9DSmp_T6kxwFR2EmlNWaKGpgOB-SavwWWpNIVvrc9KYzFv_r9kU1QT8Xh-XMyPiixvriU_IrAuPWogyMHvdJZBFDUUQJeBXCXsrKVvJQguxHzem0CQol7B5rZmWhtjoYPoVCrPqUPHbE_W0ULtqSBcMraNHfgFkXHe8c-Vz-YNRhtQ_OsYL-33MyWy0]--></g></svg>