<svg xmlns="http://www.w3.org/2000/svg" xmlns:xlink="http://www.w3.org/1999/xlink" contentStyleType="text/css" data-diagram-type="SEQUENCE" height="468px" preserveAspectRatio="none" style="width:874px;height:468px;background:#1B1B1B;" version="1.1" viewBox="0 0 874 468" width="874px" zoomAndPan="magnify"><defs/><g><rect fill="#1B1B1B" height="468" style="stroke:none;stroke-width:1;" width="874" x="0" y="0"/><g><title>WIFI</title><rect fill="#000000" fill-opacity="0.00000" height="396.5938" width="8" x="23.0767" y="36.2969"/><line style="stroke:#E7E7E7;stroke-width:0.5;stroke-dasharray:5,5;" x1="27" x2="27" y1="36.2969" y2="432.8906"/></g><g><title>Fetch_Task</title><rect fill="#000000" fill-opacity="0.00000" height="396.5938" width="8" x="209.4663" y="36.2969"/><line style="stroke:#E7E7E7;stroke-width:0.5;stroke-dasharray:5,5;" x1="213.3374" x2="213.3374" y1="36.2969" y2="432.8906"/></g><g><title>Printer_base</title><rect fill="#000000" fill-opacity="0.00000" height="396.5938" width="8" x="360.7051" y="36.2969"/><line style="stroke:#E7E7E7;stroke-width:0.5;stroke-dasharray:5,5;" x1="364.1089" x2="364.1089" y1="36.2969" y2="432.8906"/></g><g><title>Printers</title><rect fill="#000000" fill-opacity="0.00000" height="396.5938" width="8" x="589.3535" y="36.2969"/><line style="stroke:#E7E7E7;stroke-width:0.5;stroke-dasharray:5,5;" x1="593.2969" x2="593.2969" y1="36.2969" y2="432.8906"/></g><g><title>Display</title><rect fill="#000000" fill-opacity="0.00000" height="396.5938" width="8" x="666.2124" y="36.2969"/><line style="stroke:#E7E7E7;stroke-width:0.5;stroke-dasharray:5,5;" x1="669.4102" x2="669.4102" y1="36.2969" y2="432.8906"/></g><g><title>NET</title><rect fill="#000000" fill-opacity="0.00000" height="396.5938" width="8" x="758.645" y="36.2969"/><line style="stroke:#E7E7E7;stroke-width:0.5;stroke-dasharray:5,5;" x1="761.71" x2="761.71" y1="36.2969" y2="432.8906"/></g><g><title>Utils</title><rect fill="#000000" fill-opacity="0.00000" height="396.5938" width="8" x="841.9263" y="36.2969"/><line style="stroke:#E7E7E7;stroke-width:0.5;stroke-dasharray:5,5;" x1="845.5215" x2="845.5215" y1="36.2969" y2="432.8906"/></g><g class="participant participant-head" data-participant="WIFI"><rect fill="#222222" height="30.2969" rx="2.5" ry="2.5" style="stroke:#E7E7E7;stroke-width:0.5;" width="44.1533" x="5" y="5"/><text fill="#FFFFFF" font-family="sans-serif" font-size="14" lengthAdjust="spacing" textLength="30.1533" x="12" y="24.9951">WIFI</text></g><g class="participant participant-tail" data-participant="WIFI"><rect fill="#222222" height="30.2969" rx="2.5" ry="2.5" style="stroke:#E7E7E7;stroke-width:0.5;" width="44.1533" x="5" y="431.8906"/><text fill="#FFFFFF" font-family="sans-serif" font-size="14" lengthAdjust="spacing" textLength="30.1533" x="12" y="451.8857">WIFI</text></g><g class="participant participant-head" data-participant="Fetch_Task"><rect fill="#222222" height="30.2969" rx="2.5" ry="2.5" style="stroke:#E7E7E7;stroke-width:0.5;" width="92.2578" x="167.3374" y="5"/><text fill="#FFFFFF" font-family="sans-serif" font-size="14" lengthAdjust="spacing" textLength="78.2578" x="174.3374" y="24.9951">Fetch_Task</text></g><g class="participant participant-tail" data-participant="Fetch_Task"><rect fill="#222222" height="30.2969" rx="2.5" ry="2.5" style="stroke:#E7E7E7;stroke-width:0.5;" width="92.2578" x="167.3374" y="431.8906"/><text fill="#FFFFFF" font-family="sans-serif" font-size="14" lengthAdjust="spacing" textLength="78.2578" x="174.3374" y="451.8857">Fetch_Task</text></g><g class="participant participant-head" data-participant="Printer_base"><rect fill="#222222" height="30.2969" rx="2.5" ry="2.5" style="stroke:#E7E7E7;stroke-width:0.5;" width="101.1924" x="314.1089" y="5"/><text fill="#FFFFFF" font-family="sans-serif" font-size="14" lengthAdjust="spacing" textLength="87.1924" x="321.1089" y="24.9951">Printer_base</text></g><g class="participant participant-tail" data-participant="Printer_base"><rect fill="#222222" height="30.2969" rx="2.5" ry="2.5" style="stroke:#E7E7E7;stroke-width:0.5;" width="101.1924" x="314.1089" y="431.8906"/><text fill="#FFFFFF" font-family="sans-serif" font-size="14" lengthAdjust="spacing" textLength="87.1924" x="321.1089" y="451.8857">Printer_base</text></g><g class="participant participant-head" data-participant="Printers"><rect fill="#222222" height="30.2969" rx="2.5" ry="2.5" style="stroke:#E7E7E7;stroke-width:0.5;" width="68.1133" x="559.2969" y="5"/><text fill="#FFFFFF" font-family="sans-serif" font-size="14" lengthAdjust="spacing" textLength="54.1133" x="566.2969" y="24.9951">Printers</text></g><g class="participant participant-tail" data-participant="Printers"><rect fill="#222222" height="30.2969" rx="2.5" ry="2.5" style="stroke:#E7E7E7;stroke-width:0.5;" width="68.1133" x="559.2969" y="431.8906"/><text fill="#FFFFFF" font-family="sans-serif" font-size="14" lengthAdjust="spacing" textLength="54.1133" x="566.2969" y="451.8857">Printers</text></g><g class="participant participant-head" data-participant="Display"><rect fill="#222222" height="30.2969" rx="2.5" ry="2.5" style="stroke:#E7E7E7;stroke-width:0.5;" width="65.6045" x="637.4102" y="5"/><text fill="#FFFFFF" font-family="sans-serif" font-size="14" lengthAdjust="spacing" textLength="51.6045" x="644.4102" y="24.9951">Display</text></g><g class="participant participant-tail" data-participant="Display"><rect fill="#222222" height="30.2969" rx="2.5" ry="2.5" style="stroke:#E7E7E7;stroke-width:0.5;" width="65.6045" x="637.4102" y="431.8906"/><text fill="#FFFFFF" font-family="sans-serif" font-size="14" lengthAdjust="spacing" textLength="51.6045" x="644.4102" y="451.8857">Display</text></g><g class="participant participant-head" data-participant="NET"><rect fill="#222222" height="30.2969" rx="2.5" ry="2.5" style="stroke:#E7E7E7;stroke-width:0.5;" width="41.8701" x="741.71" y="5"/><text fill="#FFFFFF" font-family="sans-serif" font-size="14" lengthAdjust="spacing" textLength="27.8701" x="748.71" y="24.9951">NET</text></g><g class="participant participant-tail" data-participant="NET"><rect fill="#222222" height="30.2969" rx="2.5" ry="2.5" style="stroke:#E7E7E7;stroke-width:0.5;" width="41.8701" x="741.71" y="431.8906"/><text fill="#FFFFFF" font-family="sans-serif" font-size="14" lengthAdjust="spacing" textLength="27.8701" x="748.71" y="451.8857">NET</text></g><g class="participant participant-head" data-participant="Utils"><rect fill="#222222" height="30.2969" rx="2.5" ry="2.5" style="stroke:#E7E7E7;stroke-width:0.5;" width="44.8096" x="823.5215" y="5"/><text fill="#FFFFFF" font-family="sans-serif" font-size="14" lengthAdjust="spacing" textLength="30.8096" x="830.5215" y="24.9951">Utils</text></g><g class="participant participant-tail" data-participant="Utils"><rect fill="#222222" height="30.2969" rx="2.5" ry="2.5" style="stroke:#E7E7E7;stroke-width:0.5;" width="44.8096" x="823.5215" y="431.8906"/><text fill="#FFFFFF" font-family="sans-serif" font-size="14" lengthAdjust="spacing" textLength="30.8096" x="830.5215" y="451.8857">Utils</text></g><g class="message" data-participant-1="WIFI" data-participant-2="WIFI"><line style="stroke:#E7E7E7;stroke-width:1;" x1="27.0767" x2="69.0767" y1="67.4297" y2="67.4297"/><line style="stroke:#E7E7E7;stroke-width:1;" x1="69.0767" x2="69.0767" y1="67.4297" y2="80.4297"/><line style="stroke:#E7E7E7;stroke-width:1;" x1="28.0767" x2="69.0767" y1="80.4297" y2="80.4297"/><polygon fill="#E7E7E7" points="38.0767,76.4297,28.0767,80.4297,38.0767,84.4297,34.0767,80.4297" style="stroke:#E7E7E7;stroke-width:1;"/><text fill="#FFFFFF" font-family="sans-serif" font-size="13" lengthAdjust="spacing" textLength="172.3896" x="34.0767" y="62.3638">Give sem when connected</text></g><g class="message" data-participant-1="Fetch_Task" data-participant-2="Printer_base"><polygon fill="#E7E7E7" points="352.7051,105.5625,362.7051,109.5625,352.7051,113.5625,356.7051,109.5625" style="stroke:#E7E7E7;stroke-width:1;"/><line style="stroke:#E7E7E7;stroke-width:1;" x1="213.4663" x2="358.7051" y1="109.5625" y2="109.5625"/><text fill="#FFFFFF" font-family="sans-serif" font-size="13" lengthAdjust="spacing" textLength="127.2388" x="220.4663" y="104.4966">printer data update</text></g><g class="message" data-participant-1="Printer_base" data-participant-2="Printers"><polygon fill="#E7E7E7" points="581.3535,134.6953,591.3535,138.6953,581.3535,142.6953,585.3535,138.6953" style="stroke:#E7E7E7;stroke-width:1;"/><line style="stroke:#E7E7E7;stroke-width:1;" x1="364.7051" x2="587.3535" y1="138.6953" y2="138.6953"/><text fill="#FFFFFF" font-family="sans-serif" font-size="13" lengthAdjust="spacing" textLength="58.4111" x="371.7051" y="133.6294">get state</text></g><g class="message" data-participant-1="Printers" data-participant-2="Printer_base"><polygon fill="#E7E7E7" points="375.7051,163.8281,365.7051,167.8281,375.7051,171.8281,371.7051,167.8281" style="stroke:#E7E7E7;stroke-width:1;"/><line style="stroke:#E7E7E7;stroke-width:1;stroke-dasharray:2,2;" x1="369.7051" x2="592.3535" y1="167.8281" y2="167.8281"/><text fill="#FFFFFF" font-family="sans-serif" font-size="13" lengthAdjust="spacing" textLength="77.3271" x="381.7051" y="162.7622">return state</text></g><g class="message" data-participant-1="Printer_base" data-participant-2="Printers"><polygon fill="#E7E7E7" points="581.3535,192.9609,591.3535,196.9609,581.3535,200.9609,585.3535,196.9609" style="stroke:#E7E7E7;stroke-width:1;"/><line style="stroke:#E7E7E7;stroke-width:1;" x1="364.7051" x2="587.3535" y1="196.9609" y2="196.9609"/><text fill="#FFFFFF" font-family="sans-serif" font-size="13" lengthAdjust="spacing" textLength="204.6484" x="371.7051" y="191.895">if OFFLINE, printer connect text</text></g><g class="message" data-participant-1="Printers" data-participant-2="Printer_base"><polygon fill="#E7E7E7" points="375.7051,222.0938,365.7051,226.0938,375.7051,230.0938,371.7051,226.0938" style="stroke:#E7E7E7;stroke-width:1;"/><line style="stroke:#E7E7E7;stroke-width:1;stroke-dasharray:2,2;" x1="369.7051" x2="592.3535" y1="226.0938" y2="226.0938"/><text fill="#FFFFFF" font-family="sans-serif" font-size="13" lengthAdjust="spacing" textLength="88.0293" x="381.7051" y="221.0278">Return status</text></g><g class="message" data-participant-1="Printer_base" data-participant-2="Display"><polygon fill="#E7E7E7" points="658.2124,251.2266,668.2124,255.2266,658.2124,259.2266,662.2124,255.2266" style="stroke:#E7E7E7;stroke-width:1;"/><line style="stroke:#E7E7E7;stroke-width:1;" x1="364.7051" x2="664.2124" y1="255.2266" y2="255.2266"/><text fill="#FFFFFF" font-family="sans-serif" font-size="13" lengthAdjust="spacing" textLength="205.9624" x="371.7051" y="250.1606">if failed render wifi error screen</text></g><g class="message" data-participant-1="Printer_base" data-participant-2="Printers"><polygon fill="#E7E7E7" points="581.3535,280.3594,591.3535,284.3594,581.3535,288.3594,585.3535,284.3594" style="stroke:#E7E7E7;stroke-width:1;"/><line style="stroke:#E7E7E7;stroke-width:1;" x1="364.7051" x2="587.3535" y1="284.3594" y2="284.3594"/><text fill="#FFFFFF" font-family="sans-serif" font-size="13" lengthAdjust="spacing" textLength="174.6494" x="371.7051" y="279.2935">if sucess fetch printer data</text></g><g class="message" data-participant-1="Printers" data-participant-2="NET"><polygon fill="#E7E7E7" points="750.645,309.4922,760.645,313.4922,750.645,317.4922,754.645,313.4922" style="stroke:#E7E7E7;stroke-width:1;"/><line style="stroke:#E7E7E7;stroke-width:1;" x1="593.3535" x2="756.645" y1="313.4922" y2="313.4922"/><text fill="#FFFFFF" font-family="sans-serif" font-size="13" lengthAdjust="spacing" textLength="145.2915" x="600.3535" y="308.4263">HTTP GET printer data</text></g><g class="message" data-participant-1="NET" data-participant-2="Printers"><polygon fill="#E7E7E7" points="604.3535,338.625,594.3535,342.625,604.3535,346.625,600.3535,342.625" style="stroke:#E7E7E7;stroke-width:1;"/><line style="stroke:#E7E7E7;stroke-width:1;stroke-dasharray:2,2;" x1="598.3535" x2="761.645" y1="342.625" y2="342.625"/><text fill="#FFFFFF" font-family="sans-serif" font-size="13" lengthAdjust="spacing" textLength="89.959" x="610.3535" y="337.5591">JSON rsp data</text></g><g class="message" data-participant-1="Printers" data-participant-2="Utils"><polygon fill="#E7E7E7" points="833.9263,367.7578,843.9263,371.7578,833.9263,375.7578,837.9263,371.7578" style="stroke:#E7E7E7;stroke-width:1;"/><line style="stroke:#E7E7E7;stroke-width:1;" x1="593.3535" x2="839.9263" y1="371.7578" y2="371.7578"/><text fill="#FFFFFF" font-family="sans-serif" font-size="13" lengthAdjust="spacing" textLength="228.5728" x="600.3535" y="366.6919">Prase and save data to printer_info</text></g><g class="message" data-participant-1="Printers" data-participant-2="Printer_base"><polygon fill="#E7E7E7" points="375.7051,381.7578,365.7051,385.7578,375.7051,389.7578,371.7051,385.7578" style="stroke:#E7E7E7;stroke-width:1;"/><line style="stroke:#E7E7E7;stroke-width:1;" x1="369.7051" x2="592.3535" y1="385.7578" y2="385.7578"/></g><g class="message" data-participant-1="Printer_base" data-participant-2="Display"><polygon fill="#E7E7E7" points="658.2124,410.8906,668.2124,414.8906,658.2124,418.8906,662.2124,414.8906" style="stroke:#E7E7E7;stroke-width:1;"/><line style="stroke:#E7E7E7;stroke-width:1;" x1="364.7051" x2="664.2124" y1="414.8906" y2="414.8906"/><text fill="#FFFFFF" font-family="sans-serif" font-size="13" lengthAdjust="spacing" textLength="147.2212" x="371.7051" y="409.8247">Render Extracted data</text></g><!--SRC=[VP9DReCm48NtESKxG7C15baLKggAe9GgI-J2q5Yb1iqCJNhx6j8V8zgiBCjltljcneSqIR7UuE3F25lxJX1wm-b83bNd75LAzIeXhOvbOUHrrEPidHANpqOeGd-veJPgCFJ-e5Me22eamWifH0EDOBsmPDA1tLptXvTji4kIXpIBRtuelfYXTDPh4VlVY46m2BcrqhVcOyfeZ6sfzb2kzW4dsrWGSyUGYedSTK0PAX91CmvmDge0ReCiBYBS5KMERLpCPVufnFUkzu-x32pzqkP9RUi5EOyanjKGu_SvBKQxRzlIkgQRbOKD_3-9_QN_-Aninayn-Nu2]--></g></svg>