<svg xmlns="http://www.w3.org/2000/svg" xmlns:xlink="http://www.w3.org/1999/xlink" contentStyleType="text/css" data-diagram-type="SEQUENCE" height="652px" preserveAspectRatio="none" style="width:1089px;height:652px;background:#1B1B1B;" version="1.1" viewBox="0 0 1089 652" width="1089px" zoomAndPan="magnify"><defs/><g><rect fill="#1B1B1B" height="652" style="stroke:none;stroke-width:1;" width="1089" x="0" y="0"/><g><title>WIFI</title><rect fill="#000000" fill-opacity="0.00000" height="581.2578" width="8" x="23.0767" y="36.2969"/><line style="stroke:#E7E7E7;stroke-width:0.5;stroke-dasharray:5,5;" x1="27" x2="27" y1="36.2969" y2="617.5547"/></g><g><title>Fetch_Task</title><rect fill="#000000" fill-opacity="0.00000" height="581.2578" width="8" x="296.8926" y="36.2969"/><line style="stroke:#E7E7E7;stroke-width:0.5;stroke-dasharray:5,5;" x1="300.7637" x2="300.7637" y1="36.2969" y2="617.5547"/></g><g><title>Printer_base</title><rect fill="#000000" fill-opacity="0.00000" height="581.2578" width="8" x="494.3716" y="36.2969"/><line style="stroke:#E7E7E7;stroke-width:0.5;stroke-dasharray:5,5;" x1="497.7754" x2="497.7754" y1="36.2969" y2="617.5547"/></g><g><title>Printers</title><rect fill="#000000" fill-opacity="0.00000" height="581.2578" width="8" x="723.02" y="36.2969"/><line style="stroke:#E7E7E7;stroke-width:0.5;stroke-dasharray:5,5;" x1="726.9634" x2="726.9634" y1="36.2969" y2="617.5547"/></g><g><title>Display</title><rect fill="#000000" fill-opacity="0.00000" height="581.2578" width="8" x="940.2593" y="36.2969"/><line style="stroke:#E7E7E7;stroke-width:0.5;stroke-dasharray:5,5;" x1="943.457" x2="943.457" y1="36.2969" y2="617.5547"/></g><g><title>NET</title><rect fill="#000000" fill-opacity="0.00000" height="581.2578" width="8" x="1003.9966" y="36.2969"/><line style="stroke:#E7E7E7;stroke-width:0.5;stroke-dasharray:5,5;" x1="1007.0615" x2="1007.0615" y1="36.2969" y2="617.5547"/></g><g><title>Utils</title><rect fill="#000000" fill-opacity="0.00000" height="581.2578" width="8" x="1057.3364" y="36.2969"/><line style="stroke:#E7E7E7;stroke-width:0.5;stroke-dasharray:5,5;" x1="1060.9316" x2="1060.9316" y1="36.2969" y2="617.5547"/></g><g class="participant participant-head" data-participant="WIFI"><rect fill="#222222" height="30.2969" rx="2.5" ry="2.5" style="stroke:#E7E7E7;stroke-width:0.5;" width="44.1533" x="5" y="5"/><text fill="#FFFFFF" font-family="sans-serif" font-size="14" lengthAdjust="spacing" textLength="30.1533" x="12" y="24.9951">WIFI</text></g><g class="participant participant-tail" data-participant="WIFI"><rect fill="#222222" height="30.2969" rx="2.5" ry="2.5" style="stroke:#E7E7E7;stroke-width:0.5;" width="44.1533" x="5" y="616.5547"/><text fill="#FFFFFF" font-family="sans-serif" font-size="14" lengthAdjust="spacing" textLength="30.1533" x="12" y="636.5498">WIFI</text></g><g class="participant participant-head" data-participant="Fetch_Task"><rect fill="#222222" height="30.2969" rx="2.5" ry="2.5" style="stroke:#E7E7E7;stroke-width:0.5;" width="92.2578" x="254.7637" y="5"/><text fill="#FFFFFF" font-family="sans-serif" font-size="14" lengthAdjust="spacing" textLength="78.2578" x="261.7637" y="24.9951">Fetch_Task</text></g><g class="participant participant-tail" data-participant="Fetch_Task"><rect fill="#222222" height="30.2969" rx="2.5" ry="2.5" style="stroke:#E7E7E7;stroke-width:0.5;" width="92.2578" x="254.7637" y="616.5547"/><text fill="#FFFFFF" font-family="sans-serif" font-size="14" lengthAdjust="spacing" textLength="78.2578" x="261.7637" y="636.5498">Fetch_Task</text></g><g class="participant participant-head" data-participant="Printer_base"><rect fill="#222222" height="30.2969" rx="2.5" ry="2.5" style="stroke:#E7E7E7;stroke-width:0.5;" width="101.1924" x="447.7754" y="5"/><text fill="#FFFFFF" font-family="sans-serif" font-size="14" lengthAdjust="spacing" textLength="87.1924" x="454.7754" y="24.9951">Printer_base</text></g><g class="participant participant-tail" data-participant="Printer_base"><rect fill="#222222" height="30.2969" rx="2.5" ry="2.5" style="stroke:#E7E7E7;stroke-width:0.5;" width="101.1924" x="447.7754" y="616.5547"/><text fill="#FFFFFF" font-family="sans-serif" font-size="14" lengthAdjust="spacing" textLength="87.1924" x="454.7754" y="636.5498">Printer_base</text></g><g class="participant participant-head" data-participant="Printers"><rect fill="#222222" height="30.2969" rx="2.5" ry="2.5" style="stroke:#E7E7E7;stroke-width:0.5;" width="68.1133" x="692.9634" y="5"/><text fill="#FFFFFF" font-family="sans-serif" font-size="14" lengthAdjust="spacing" textLength="54.1133" x="699.9634" y="24.9951">Printers</text></g><g class="participant participant-tail" data-participant="Printers"><rect fill="#222222" height="30.2969" rx="2.5" ry="2.5" style="stroke:#E7E7E7;stroke-width:0.5;" width="68.1133" x="692.9634" y="616.5547"/><text fill="#FFFFFF" font-family="sans-serif" font-size="14" lengthAdjust="spacing" textLength="54.1133" x="699.9634" y="636.5498">Printers</text></g><g class="participant participant-head" data-participant="Display"><rect fill="#222222" height="30.2969" rx="2.5" ry="2.5" style="stroke:#E7E7E7;stroke-width:0.5;" width="65.6045" x="911.457" y="5"/><text fill="#FFFFFF" font-family="sans-serif" font-size="14" lengthAdjust="spacing" textLength="51.6045" x="918.457" y="24.9951">Display</text></g><g class="participant participant-tail" data-participant="Display"><rect fill="#222222" height="30.2969" rx="2.5" ry="2.5" style="stroke:#E7E7E7;stroke-width:0.5;" width="65.6045" x="911.457" y="616.5547"/><text fill="#FFFFFF" font-family="sans-serif" font-size="14" lengthAdjust="spacing" textLength="51.6045" x="918.457" y="636.5498">Display</text></g><g class="participant participant-head" data-participant="NET"><rect fill="#222222" height="30.2969" rx="2.5" ry="2.5" style="stroke:#E7E7E7;stroke-width:0.5;" width="41.8701" x="987.0615" y="5"/><text fill="#FFFFFF" font-family="sans-serif" font-size="14" lengthAdjust="spacing" textLength="27.8701" x="994.0615" y="24.9951">NET</text></g><g class="participant participant-tail" data-participant="NET"><rect fill="#222222" height="30.2969" rx="2.5" ry="2.5" style="stroke:#E7E7E7;stroke-width:0.5;" width="41.8701" x="987.0615" y="616.5547"/><text fill="#FFFFFF" font-family="sans-serif" font-size="14" lengthAdjust="spacing" textLength="27.8701" x="994.0615" y="636.5498">NET</text></g><g class="participant participant-head" data-participant="Utils"><rect fill="#222222" height="30.2969" rx="2.5" ry="2.5" style="stroke:#E7E7E7;stroke-width:0.5;" width="44.8096" x="1038.9316" y="5"/><text fill="#FFFFFF" font-family="sans-serif" font-size="14" lengthAdjust="spacing" textLength="30.8096" x="1045.9316" y="24.9951">Utils</text></g><g class="participant participant-tail" data-participant="Utils"><rect fill="#222222" height="30.2969" rx="2.5" ry="2.5" style="stroke:#E7E7E7;stroke-width:0.5;" width="44.8096" x="1038.9316" y="616.5547"/><text fill="#FFFFFF" font-family="sans-serif" font-size="14" lengthAdjust="spacing" textLength="30.8096" x="1045.9316" y="636.5498">Utils</text></g><g class="message" data-participant-1="WIFI" data-participant-2="WIFI"><line style="stroke:#E7E7E7;stroke-width:1;" x1="27.0767" x2="69.0767" y1="67.4297" y2="67.4297"/><line style="stroke:#E7E7E7;stroke-width:1;" x1="69.0767" x2="69.0767" y1="67.4297" y2="80.4297"/><line style="stroke:#E7E7E7;stroke-width:1;" x1="28.0767" x2="69.0767" y1="80.4297" y2="80.4297"/><polygon fill="#E7E7E7" points="38.0767,76.4297,28.0767,80.4297,38.0767,84.4297,34.0767,80.4297" style="stroke:#E7E7E7;stroke-width:1;"/><text fill="#FFFFFF" font-family="sans-serif" font-size="13" lengthAdjust="spacing" textLength="172.3896" x="34.0767" y="62.3638">Give sem when connected</text></g><g class="message" data-participant-1="Fetch_Task" data-participant-2="Printer_base"><polygon fill="#E7E7E7" points="486.3716,105.5625,496.3716,109.5625,486.3716,113.5625,490.3716,109.5625" style="stroke:#E7E7E7;stroke-width:1;"/><line style="stroke:#E7E7E7;stroke-width:1;" x1="300.8926" x2="492.3716" y1="109.5625" y2="109.5625"/><text fill="#FFFFFF" font-family="sans-serif" font-size="13" lengthAdjust="spacing" textLength="127.2388" x="307.8926" y="104.4966">printer data update</text></g><g class="message" data-participant-1="Printer_base" data-participant-2="Printers"><polygon fill="#E7E7E7" points="715.02,134.6953,725.02,138.6953,715.02,142.6953,719.02,138.6953" style="stroke:#E7E7E7;stroke-width:1;"/><line style="stroke:#E7E7E7;stroke-width:1;" x1="498.3716" x2="721.02" y1="138.6953" y2="138.6953"/><text fill="#FFFFFF" font-family="sans-serif" font-size="13" lengthAdjust="spacing" textLength="58.4111" x="505.3716" y="133.6294">get state</text></g><g class="message" data-participant-1="Printers" data-participant-2="Printer_base"><polygon fill="#E7E7E7" points="509.3716,163.8281,499.3716,167.8281,509.3716,171.8281,505.3716,167.8281" style="stroke:#E7E7E7;stroke-width:1;"/><line style="stroke:#E7E7E7;stroke-width:1;stroke-dasharray:2,2;" x1="503.3716" x2="726.02" y1="167.8281" y2="167.8281"/><text fill="#FFFFFF" font-family="sans-serif" font-size="13" lengthAdjust="spacing" textLength="77.3271" x="515.3716" y="162.7622">return state</text></g><g class="message" data-participant-1="Printer_base" data-participant-2="Printers"><polygon fill="#E7E7E7" points="715.02,192.9609,725.02,196.9609,715.02,200.9609,719.02,196.9609" style="stroke:#E7E7E7;stroke-width:1;"/><line style="stroke:#E7E7E7;stroke-width:1;" x1="498.3716" x2="721.02" y1="196.9609" y2="196.9609"/><text fill="#FFFFFF" font-family="sans-serif" font-size="13" lengthAdjust="spacing" textLength="204.6484" x="505.3716" y="191.895">if OFFLINE, printer connect text</text></g><g class="message" data-participant-1="Printers" data-participant-2="Printer_base"><polygon fill="#E7E7E7" points="509.3716,222.0938,499.3716,226.0938,509.3716,230.0938,505.3716,226.0938" style="stroke:#E7E7E7;stroke-width:1;"/><line style="stroke:#E7E7E7;stroke-width:1;stroke-dasharray:2,2;" x1="503.3716" x2="726.02" y1="226.0938" y2="226.0938"/><text fill="#FFFFFF" font-family="sans-serif" font-size="13" lengthAdjust="spacing" textLength="88.0293" x="515.3716" y="221.0278">Return status</text></g><g class="message" data-participant-1="Printer_base" data-participant-2="Display"><polygon fill="#E7E7E7" points="932.2593,251.2266,942.2593,255.2266,932.2593,259.2266,936.2593,255.2266" style="stroke:#E7E7E7;stroke-width:1;"/><line style="stroke:#E7E7E7;stroke-width:1;" x1="498.3716" x2="938.2593" y1="255.2266" y2="255.2266"/><text fill="#FFFFFF" font-family="sans-serif" font-size="13" lengthAdjust="spacing" textLength="205.9624" x="505.3716" y="250.1606">if failed render wifi error screen</text></g><g class="message" data-participant-1="Printer_base" data-participant-2="Printers"><polygon fill="#E7E7E7" points="715.02,280.3594,725.02,284.3594,715.02,288.3594,719.02,284.3594" style="stroke:#E7E7E7;stroke-width:1;"/><line style="stroke:#E7E7E7;stroke-width:1;" x1="498.3716" x2="721.02" y1="284.3594" y2="284.3594"/><text fill="#FFFFFF" font-family="sans-serif" font-size="13" lengthAdjust="spacing" textLength="174.6494" x="505.3716" y="279.2935">if sucess fetch printer data</text></g><g class="message" data-participant-1="Printers" data-participant-2="NET"><polygon fill="#E7E7E7" points="995.9966,309.4922,1005.9966,313.4922,995.9966,317.4922,999.9966,313.4922" style="stroke:#E7E7E7;stroke-width:1;"/><line style="stroke:#E7E7E7;stroke-width:1;" x1="727.02" x2="1001.9966" y1="313.4922" y2="313.4922"/><text fill="#FFFFFF" font-family="sans-serif" font-size="13" lengthAdjust="spacing" textLength="145.2915" x="734.02" y="308.4263">HTTP GET printer data</text></g><g class="message" data-participant-1="NET" data-participant-2="Printers"><polygon fill="#E7E7E7" points="738.02,338.625,728.02,342.625,738.02,346.625,734.02,342.625" style="stroke:#E7E7E7;stroke-width:1;"/><line style="stroke:#E7E7E7;stroke-width:1;stroke-dasharray:2,2;" x1="732.02" x2="1006.9966" y1="342.625" y2="342.625"/><text fill="#FFFFFF" font-family="sans-serif" font-size="13" lengthAdjust="spacing" textLength="89.959" x="744.02" y="337.5591">JSON rsp data</text></g><g class="message" data-participant-1="Printers" data-participant-2="Utils"><polygon fill="#E7E7E7" points="1049.3364,367.7578,1059.3364,371.7578,1049.3364,375.7578,1053.3364,371.7578" style="stroke:#E7E7E7;stroke-width:1;"/><line style="stroke:#E7E7E7;stroke-width:1;" x1="727.02" x2="1055.3364" y1="371.7578" y2="371.7578"/><text fill="#FFFFFF" font-family="sans-serif" font-size="13" lengthAdjust="spacing" textLength="105.5107" x="734.02" y="366.6919">Prase JSON data</text></g><g class="message" data-participant-1="Utils" data-participant-2="Printers"><polygon fill="#E7E7E7" points="738.02,396.8906,728.02,400.8906,738.02,404.8906,734.02,400.8906" style="stroke:#E7E7E7;stroke-width:1;"/><line style="stroke:#E7E7E7;stroke-width:1;stroke-dasharray:2,2;" x1="732.02" x2="1060.3364" y1="400.8906" y2="400.8906"/><text fill="#FFFFFF" font-family="sans-serif" font-size="13" lengthAdjust="spacing" textLength="77.5874" x="744.02" y="395.8247">Parsed data</text></g><g class="message" data-participant-1="Printers" data-participant-2="Printers"><line style="stroke:#E7E7E7;stroke-width:1;" x1="727.02" x2="769.02" y1="430.0234" y2="430.0234"/><line style="stroke:#E7E7E7;stroke-width:1;" x1="769.02" x2="769.02" y1="430.0234" y2="443.0234"/><line style="stroke:#E7E7E7;stroke-width:1;" x1="728.02" x2="769.02" y1="443.0234" y2="443.0234"/><polygon fill="#E7E7E7" points="738.02,439.0234,728.02,443.0234,738.02,447.0234,734.02,443.0234" style="stroke:#E7E7E7;stroke-width:1;"/><text fill="#FFFFFF" font-family="sans-serif" font-size="13" lengthAdjust="spacing" textLength="203.2393" x="734.02" y="424.9575">Save data to printer_info struct</text></g><g class="message" data-participant-1="Printers" data-participant-2="Printer_base"><polygon fill="#E7E7E7" points="509.3716,453.0234,499.3716,457.0234,509.3716,461.0234,505.3716,457.0234" style="stroke:#E7E7E7;stroke-width:1;"/><line style="stroke:#E7E7E7;stroke-width:1;stroke-dasharray:2,2;" x1="503.3716" x2="726.02" y1="457.0234" y2="457.0234"/></g><g class="message" data-participant-1="Printer_base" data-participant-2="Display"><polygon fill="#E7E7E7" points="932.2593,482.1563,942.2593,486.1563,932.2593,490.1563,936.2593,486.1563" style="stroke:#E7E7E7;stroke-width:1;"/><line style="stroke:#E7E7E7;stroke-width:1;" x1="498.3716" x2="938.2593" y1="486.1563" y2="486.1563"/><text fill="#FFFFFF" font-family="sans-serif" font-size="13" lengthAdjust="spacing" textLength="147.2212" x="505.3716" y="481.0903">Render Extracted data</text></g><g class="message" data-participant-1="WIFI" data-participant-2="WIFI"><line style="stroke:#E7E7E7;stroke-width:1;" x1="27.0767" x2="69.0767" y1="515.2891" y2="515.2891"/><line style="stroke:#E7E7E7;stroke-width:1;" x1="69.0767" x2="69.0767" y1="515.2891" y2="528.2891"/><line style="stroke:#E7E7E7;stroke-width:1;" x1="28.0767" x2="69.0767" y1="528.2891" y2="528.2891"/><polygon fill="#E7E7E7" points="38.0767,524.2891,28.0767,528.2891,38.0767,532.2891,34.0767,528.2891" style="stroke:#E7E7E7;stroke-width:1;"/><text fill="#FFFFFF" font-family="sans-serif" font-size="13" lengthAdjust="spacing" textLength="259.8159" x="34.0767" y="510.2231">Disconnected, sets wifi_connected:false</text></g><g class="message" data-participant-1="Fetch_Task" data-participant-2="Display"><polygon fill="#E7E7E7" points="932.2593,553.4219,942.2593,557.4219,932.2593,561.4219,936.2593,557.4219" style="stroke:#E7E7E7;stroke-width:1;"/><line style="stroke:#E7E7E7;stroke-width:1;" x1="300.8926" x2="938.2593" y1="557.4219" y2="557.4219"/><text fill="#FFFFFF" font-family="sans-serif" font-size="13" lengthAdjust="spacing" textLength="217.3628" x="307.8926" y="552.356">Render Wifi Disconnected Screen</text></g><g class="message" data-participant-1="Fetch_Task" data-participant-2="Fetch_Task"><line style="stroke:#E7E7E7;stroke-width:1;" x1="300.8926" x2="342.8926" y1="586.5547" y2="586.5547"/><line style="stroke:#E7E7E7;stroke-width:1;" x1="342.8926" x2="342.8926" y1="586.5547" y2="599.5547"/><line style="stroke:#E7E7E7;stroke-width:1;" x1="301.8926" x2="342.8926" y1="599.5547" y2="599.5547"/><polygon fill="#E7E7E7" points="311.8926,595.5547,301.8926,599.5547,311.8926,603.5547,307.8926,599.5547" style="stroke:#E7E7E7;stroke-width:1;"/><text fill="#FFFFFF" font-family="sans-serif" font-size="13" lengthAdjust="spacing" textLength="183.479" x="307.8926" y="581.4888">Waits for the wifi to connect</text></g><!--SRC=[VL91Ri8m4Bpt5Vi0-40Ed9fGgWeYI9LZv2RhOZLrejrDeR_l9g4GGyl9iZsU6SzElafMC5z0hci4I_U5mFW9XprwA1lliHIi7XAKSbzaXZzwR4hE2rBnPXWZQCSTL4OCTAqk-315J5vm1Eyem3B1CCnlA0cb8n_Y_k1o5ZP9yh9QnxEpYvDd43pAFOdjHQ9Zk15vTDpMvdlGiCRLMAafNwd0mLa7IDGGS4c8_hv1xafa1ji764GrCRU0TPn5y9HbAIpZB8JfrTI-iZxlDciWRiVxWETLNAs8b7eh0sx03CTNBAaXrb_TMBaWTaRBC4nLcbzFXVEsqTIeA-_4-t-Ssp74-2Xa-cQT_f07BLJqkNephQFma7fnFeoigLKbREMrHjuFQae5kt5UuRFBBeBSEDMoEbhPupXf_Vg9u0S0]--></g></svg>